<svg id="my-svg" width="100%" xmlns="http://www.w3.org/2000/svg" xmlns:xlink="http://www.w3.org/1999/xlink" class="flowchart" style="max-width: 549.794px; background-color: rgb(244, 239, 230);" viewBox="0 0 549.7940063476562 342.5" role="graphics-document document" aria-roledescription="flowchart-v2"><style>#my-svg{font-size:14px;fill:#0A1628;}@keyframes edge-animation-frame{from{stroke-dashoffset:0;}}@keyframes dash{to{stroke-dashoffset:0;}}#my-svg .edge-animation-slow{stroke-dasharray:9,5!important;stroke-dashoffset:900;animation:dash 50s linear infinite;stroke-linecap:round;}#my-svg .edge-animation-fast{stroke-dasharray:9,5!important;stroke-dashoffset:900;animation:dash 20s linear infinite;stroke-linecap:round;}#my-svg .error-icon{fill:#EAE2D2;}#my-svg .error-text{fill:#151d2d;stroke:#151d2d;}#my-svg .edge-thickness-normal{stroke-width:1px;}#my-svg .edge-thickness-thick{stroke-width:3.5px;}#my-svg .edge-pattern-solid{stroke-dasharray:0;}#my-svg .edge-thickness-invisible{stroke-width:0;fill:none;}#my-svg .edge-pattern-dashed{stroke-dasharray:3;}#my-svg .edge-pattern-dotted{stroke-dasharray:2;}#my-svg .marker{fill:#1A1A1A;stroke:#1A1A1A;}#my-svg .marker.cross{stroke:#1A1A1A;}#my-svg svg{font-size:14px;}#my-svg p{margin:0;}#my-svg .label{color:#0A1628;}#my-svg .cluster-label text{fill:#151d2d;}#my-svg .cluster-label span{color:#151d2d;}#my-svg .cluster-label span p{background-color:transparent;}#my-svg .label text,#my-svg span{fill:#0A1628;color:#0A1628;}#my-svg .node rect,#my-svg .node circle,#my-svg .node ellipse,#my-svg .node polygon,#my-svg .node path{fill:#F4EFE6;stroke:#D4A84B;stroke-width:1px;}#my-svg .rough-node .label text,#my-svg .node .label text,#my-svg .image-shape .label,#my-svg .icon-shape .label{text-anchor:middle;}#my-svg .node .katex path{fill:#000;stroke:#000;stroke-width:1px;}#my-svg .rough-node .label,#my-svg .node .label,#my-svg .image-shape .label,#my-svg .icon-shape .label{text-align:center;}#my-svg .node.clickable{cursor:pointer;}#my-svg .root .anchor path{fill:#1A1A1A!important;stroke-width:0;stroke:#1A1A1A;}#my-svg .arrowheadPath{fill:#0b0b0b;}#my-svg .edgePath .path{stroke:#1A1A1A;stroke-width:1px;}#my-svg .flowchart-link{stroke:#1A1A1A;fill:none;}#my-svg .edgeLabel{background-color:#0A1628;text-align:center;}#my-svg .edgeLabel p{background-color:#0A1628;}#my-svg .edgeLabel rect{opacity:0.5;background-color:#0A1628;fill:#0A1628;}#my-svg .labelBkg{background-color:rgba(10, 22, 40, 0.5);}#my-svg .cluster rect{fill:#EAE2D2;stroke:hsl(40, 0%, 77.0588235294%);stroke-width:1px;}#my-svg .cluster text{fill:#151d2d;}#my-svg .cluster span{color:#151d2d;}#my-svg div.mermaidTooltip{position:absolute;text-align:center;max-width:200px;padding:2px;font-size:12px;background:#EAE2D2;border:1px solid hsl(40, 0%, 77.0588235294%);border-radius:2px;pointer-events:none;z-index:100;}#my-svg .flowchartTitleText{text-anchor:middle;font-size:18px;fill:#0A1628;}#my-svg rect.text{fill:none;stroke-width:0;}#my-svg .icon-shape,#my-svg .image-shape{background-color:#0A1628;text-align:center;}#my-svg .icon-shape p,#my-svg .image-shape p{background-color:#0A1628;padding:2px;}#my-svg .icon-shape .label rect,#my-svg .image-shape .label rect{opacity:0.5;background-color:#0A1628;fill:#0A1628;}#my-svg .label-icon{display:inline-block;height:1em;overflow:visible;vertical-align:-0.125em;}#my-svg .node .label-icon path{fill:currentColor;stroke:revert;stroke-width:revert;}#my-svg .node .neo-node{stroke:#D4A84B;}#my-svg [data-look="neo"].node rect,#my-svg [data-look="neo"].cluster rect,#my-svg [data-look="neo"].node polygon{stroke:url(#my-svg-gradient);filter:drop-shadow( 1px 2px 2px rgba(185,185,185,1));}#my-svg [data-look="neo"].node path{stroke:url(#my-svg-gradient);stroke-width:1px;}#my-svg [data-look="neo"].node .outer-path{filter:drop-shadow( 1px 2px 2px rgba(185,185,185,1));}#my-svg [data-look="neo"].node .neo-line path{stroke:#D4A84B;filter:none;}#my-svg [data-look="neo"].node circle{stroke:url(#my-svg-gradient);filter:drop-shadow( 1px 2px 2px rgba(185,185,185,1));}#my-svg [data-look="neo"].node circle .state-start{fill:#000000;}#my-svg [data-look="neo"].icon-shape .icon{fill:url(#my-svg-gradient);filter:drop-shadow( 1px 2px 2px rgba(185,185,185,1));}#my-svg [data-look="neo"].icon-shape .icon-neo path{stroke:url(#my-svg-gradient);filter:drop-shadow( 1px 2px 2px rgba(185,185,185,1));}#my-svg :root{--mermaid-font-family:"trebuchet ms",verdana,arial,sans-serif;}#my-svg .g4&gt;*{fill:#D4A84B!important;stroke:#0A1628!important;color:#0A1628!important;font-size:13px!important;}#my-svg .g4 span{fill:#D4A84B!important;stroke:#0A1628!important;color:#0A1628!important;font-size:13px!important;}#my-svg .g4 tspan{fill:#0A1628!important;}#my-svg .g2&gt;*{fill:#0A1628!important;stroke:#D4A84B!important;color:#F4EFE6!important;font-size:13px!important;}#my-svg .g2 span{fill:#0A1628!important;stroke:#D4A84B!important;color:#F4EFE6!important;font-size:13px!important;}#my-svg .g2 tspan{fill:#F4EFE6!important;}#my-svg .op&gt;*{fill:#F4EFE6!important;stroke:#0A1628!important;color:#0A1628!important;font-weight:bold!important;}#my-svg .op span{fill:#F4EFE6!important;stroke:#0A1628!important;color:#0A1628!important;font-weight:bold!important;}#my-svg .op tspan{fill:#0A1628!important;}</style><g><marker id="my-svg_flowchart-v2-pointEnd" class="marker flowchart-v2" viewBox="0 0 10 10" refX="5" refY="5" markerUnits="userSpaceOnUse" markerWidth="8" markerHeight="8" orient="auto"><path d="M 0 0 L 10 5 L 0 10 z" class="arrowMarkerPath" style="stroke-width: 1; stroke-dasharray: 1, 0;"/></marker><marker id="my-svg_flowchart-v2-pointStart" class="marker flowchart-v2" viewBox="0 0 10 10" refX="4.5" refY="5" markerUnits="userSpaceOnUse" markerWidth="8" markerHeight="8" orient="auto"><path d="M 0 5 L 10 10 L 10 0 z" class="arrowMarkerPath" style="stroke-width: 1; stroke-dasharray: 1, 0;"/></marker><marker id="my-svg_flowchart-v2-pointEnd-margin" class="marker flowchart-v2" viewBox="0 0 11.5 14" refX="11.5" refY="7" markerUnits="userSpaceOnUse" markerWidth="10.5" markerHeight="14" orient="auto"><path d="M 0 0 L 11.5 7 L 0 14 z" class="arrowMarkerPath" style="stroke-width: 0; stroke-dasharray: 1, 0;"/></marker><marker id="my-svg_flowchart-v2-pointStart-margin" class="marker flowchart-v2" viewBox="0 0 11.5 14" refX="1" refY="7" markerUnits="userSpaceOnUse" markerWidth="11.5" markerHeight="14" orient="auto"><polygon points="0,7 11.5,14 11.5,0" class="arrowMarkerPath" style="stroke-width: 0; stroke-dasharray: 1, 0;"/></marker><marker id="my-svg_flowchart-v2-circleEnd" class="marker flowchart-v2" viewBox="0 0 10 10" refX="11" refY="5" markerUnits="userSpaceOnUse" markerWidth="11" markerHeight="11" orient="auto"><circle cx="5" cy="5" r="5" class="arrowMarkerPath" style="stroke-width: 1; stroke-dasharray: 1, 0;"/></marker><marker id="my-svg_flowchart-v2-circleStart" class="marker flowchart-v2" viewBox="0 0 10 10" refX="-1" refY="5" markerUnits="userSpaceOnUse" markerWidth="11" markerHeight="11" orient="auto"><circle cx="5" cy="5" r="5" class="arrowMarkerPath" style="stroke-width: 1; stroke-dasharray: 1, 0;"/></marker><marker id="my-svg_flowchart-v2-circleEnd-margin" class="marker flowchart-v2" viewBox="0 0 10 10" refY="5" refX="12.25" markerUnits="userSpaceOnUse" markerWidth="14" markerHeight="14" orient="auto"><circle cx="5" cy="5" r="5" class="arrowMarkerPath" style="stroke-width: 0; stroke-dasharray: 1, 0;"/></marker><marker id="my-svg_flowchart-v2-circleStart-margin" class="marker flowchart-v2" viewBox="0 0 10 10" refX="-2" refY="5" markerUnits="userSpaceOnUse" markerWidth="14" markerHeight="14" orient="auto"><circle cx="5" cy="5" r="5" class="arrowMarkerPath" style="stroke-width: 0; stroke-dasharray: 1, 0;"/></marker><marker id="my-svg_flowchart-v2-crossEnd" class="marker cross flowchart-v2" viewBox="0 0 11 11" refX="12" refY="5.2" markerUnits="userSpaceOnUse" markerWidth="11" markerHeight="11" orient="auto"><path d="M 1,1 l 9,9 M 10,1 l -9,9" class="arrowMarkerPath" style="stroke-width: 2; stroke-dasharray: 1, 0;"/></marker><marker id="my-svg_flowchart-v2-crossStart" class="marker cross flowchart-v2" viewBox="0 0 11 11" refX="-1" refY="5.2" markerUnits="userSpaceOnUse" markerWidth="11" markerHeight="11" orient="auto"><path d="M 1,1 l 9,9 M 10,1 l -9,9" class="arrowMarkerPath" style="stroke-width: 2; stroke-dasharray: 1, 0;"/></marker><marker id="my-svg_flowchart-v2-crossEnd-margin" class="marker cross flowchart-v2" viewBox="0 0 15 15" refX="17.7" refY="7.5" markerUnits="userSpaceOnUse" markerWidth="12" markerHeight="12" orient="auto"><path d="M 1,1 L 14,14 M 1,14 L 14,1" class="arrowMarkerPath" style="stroke-width: 2.5;"/></marker><marker id="my-svg_flowchart-v2-crossStart-margin" class="marker cross flowchart-v2" viewBox="0 0 15 15" refX="-3.5" refY="7.5" markerUnits="userSpaceOnUse" markerWidth="12" markerHeight="12" orient="auto"><path d="M 1,1 L 14,14 M 1,14 L 14,1" class="arrowMarkerPath" style="stroke-width: 2.5; stroke-dasharray: 1, 0;"/></marker><g class="root"><g class="clusters"/><g class="edgePaths"><path d="M198.656,52.25L212.862,52.25C227.068,52.25,255.479,52.25,292.635,70.378C329.79,88.507,375.69,124.764,398.64,142.892L421.59,161.021" id="my-svg-L_UR_OP_0" class="edge-thickness-normal edge-pattern-solid edge-thickness-normal edge-pattern-solid flowchart-link" style=";" data-edge="true" data-et="edge" data-id="L_UR_OP_0" data-points="W3sieCI6MTk4LjY1NjI1LCJ5Ijo1Mi4yNX0seyJ4IjoyODMuODkwNjI1LCJ5Ijo1Mi4yNX0seyJ4Ijo0MjQuNzI4NzI2NzU5MjM0NywieSI6MTYzLjV9XQ==" data-look="classic" marker-end="url(#my-svg_flowchart-v2-pointEnd)"/><path d="M187.234,181L203.344,181C219.453,181,251.672,181,278.596,181.078C305.521,181.157,327.151,181.314,337.966,181.392L348.781,181.471" id="my-svg-L_DL_OP_0" class="edge-thickness-normal edge-pattern-solid edge-thickness-normal edge-pattern-solid flowchart-link" style=";" data-edge="true" data-et="edge" data-id="L_DL_OP_0" data-points="W3sieCI6MTg3LjIzNDM3NSwieSI6MTgxfSx7IngiOjI4My44OTA2MjUsInkiOjE4MX0seyJ4IjozNTIuNzgxMjQ5OTk5OTk3OTUsInkiOjE4MS40OTk5OTk5OTk5OTk5N31d" data-look="classic" marker-end="url(#my-svg_flowchart-v2-pointEnd)"/><path d="M215.5,300L226.898,300C238.297,300,261.094,300,295.114,283.641C329.133,267.281,374.376,234.563,396.997,218.203L419.619,201.844" id="my-svg-L_SI_OP_0" class="edge-thickness-normal edge-pattern-solid edge-thickness-normal edge-pattern-solid flowchart-link" style=";" data-edge="true" data-et="edge" data-id="L_SI_OP_0" data-points="W3sieCI6MjE1LjUsInkiOjMwMH0seyJ4IjoyODMuODkwNjI1LCJ5IjozMDB9LHsieCI6NDIyLjg1OTkzMDIxNDc2MTcsInkiOjE5OS41fV0=" data-look="classic" marker-end="url(#my-svg_flowchart-v2-pointEnd)"/></g><g class="edgeLabels"><g class="edgeLabel" transform="translate(283.890625, 52.25)"><g class="label" data-id="L_UR_OP_0" transform="translate(-43.390625, -10.5)"><foreignObject width="86.78125" height="21"><div xmlns="http://www.w3.org/1999/xhtml" class="labelBkg" style="display: table-cell; white-space: nowrap; line-height: 1.5; max-width: 200px; text-align: center;"><span class="edgeLabel"><p>GoA 2 · driver</p></span></div></foreignObject></g></g><g class="edgeLabel" transform="translate(283.890625, 181)"><g class="label" data-id="L_DL_OP_0" transform="translate(-18.015625, -10.5)"><foreignObject width="36.03125" height="21"><div xmlns="http://www.w3.org/1999/xhtml" class="labelBkg" style="display: table-cell; white-space: nowrap; line-height: 1.5; max-width: 200px; text-align: center;"><span class="edgeLabel"><p>GoA 4</p></span></div></foreignObject></g></g><g class="edgeLabel" transform="translate(283.890625, 300)"><g class="label" data-id="L_SI_OP_0" transform="translate(-18.015625, -10.5)"><foreignObject width="36.03125" height="21"><div xmlns="http://www.w3.org/1999/xhtml" class="labelBkg" style="display: table-cell; white-space: nowrap; line-height: 1.5; max-width: 200px; text-align: center;"><span class="edgeLabel"><p>GoA 4</p></span></div></foreignObject></g></g></g><g class="nodes"><g class="node default op" id="my-svg-flowchart-OP-0" data-look="classic" transform="translate(447.0376281738281, 181)"><g class="basic label-container outer-path"><path d="M-76.765625 -18 C-20.309580587652725 -18, 36.14646382469455 -18, 76.765625 -18 C76.765625 -18, 76.765625 -18, 76.765625 -18 C77.18461166544611 -17.986563913147215, 77.60359833089223 -17.973127826294427, 77.91888895965283 -17.963017069506055 C78.33853914916779 -17.92253392042674, 78.75818933868275 -17.882050771347426, 79.06741391032111 -17.85222024881843 C79.48235032500061 -17.785136547173003, 79.8972867396801 -17.718052845527577, 80.20648031662469 -17.668064825839178 C80.61112918469436 -17.575706362282915, 81.01577805276403 -17.483347898726652, 81.33140751037112 -17.41130753470253 C81.76813712561768 -17.28168847733788, 82.20486674086425 -17.15206941997323, 82.43757292442517 -17.083003446192034 C82.75363992183057 -16.966687869455555, 83.06970691923595 -16.850372292719072, 83.52043108782874 -16.68450163222839 C83.89779477931035 -16.517453920105662, 84.27515847079196 -16.350406207982935, 84.57553230411605 -16.217439622243546 C84.95939272523611 -16.01717988641954, 85.34325314635618 -15.816920150595536, 85.59854093607088 -15.683736674221011 C85.96120631760654 -15.463886788675746, 86.3238716991422 -15.24403690313048, 86.58525322178987 -15.085585888053133 C86.85689862898306 -14.896097811335315, 87.12854403617625 -14.706609734617496, 87.53161454884189 -14.425445193623219 C87.83423982628112 -14.184109588062274, 88.13686510372035 -13.94277398250133, 88.43373611554019 -13.706027250644421 C88.76261836573602 -13.407345092764064, 89.09150061593185 -13.108662934883705, 89.28791091086275 -12.930288301759097 C89.60210026036498 -12.605862002972733, 89.91628960986719 -12.281435704186372, 90.09062894735568 -12.101416024703706 C90.29933868521184 -11.856253690697342, 90.508048423068 -11.611091356690977, 90.83859168442453 -11.222816433457204 C91.04291276403171 -10.949044800816852, 91.24723384363891 -10.675273168176501, 91.5287255827452 -10.298099882199057 C91.74396295429223 -9.96743748017588, 91.95920032583928 -9.636775078152704, 92.15819473409623 -9.331066229589453 C92.29978832239384 -9.079652475661486, 92.44138191069145 -8.82823872173352, 92.724412514714 -8.325689224335035 C92.85120843090141 -8.06239479137389, 92.97800434708883 -7.799100358412747, 93.22505221428463 -7.286100176203093 C93.38561203710478 -6.889514309624329, 93.54617185992491 -6.492928443045564, 93.65805659689568 -6.216570979583546 C93.79204975596043 -5.8130049333911815, 93.92604291502518 -5.409438887198817, 94.0216463546599 -5.121496559358589 C94.11982534407008 -4.747097521694349, 94.21800433348028 -4.372698484030109, 94.31432741927283 -4.005376811213661 C94.39599203200693 -3.5860462846460273, 94.47765664474105 -3.166715758078394, 94.5348971014601 -2.872798110600833 C94.56927530172025 -2.6061675781265823, 94.6036535019804 -2.3395370456523317, 94.68244903308556 -1.728414466338275 C94.70004318895164 -1.454371286977115, 94.71763734481772 -1.1803281076159549, 94.75637689161238 -0.576928396289793 C94.75637689161238 -0.3360567039102043, 94.75637689161238 -0.09518501153061565, 94.75637689161238 0.5769283962897886 C94.7350385217324 0.9092907311925682, 94.71370015185242 1.2416530660953478, 94.68244903308556 1.7284144663382628 C94.62402326089537 2.1815532179716923, 94.56559748870518 2.6346919696051216, 94.5348971014601 2.8727981106008205 C94.46393641338717 3.237166246308603, 94.39297572531424 3.601534382016386, 94.31432741927283 4.005376811213657 C94.24148046370215 4.28317382487495, 94.16863350813145 4.560970838536243, 94.0216463546599 5.121496559358577 C93.90240638261744 5.480628356840896, 93.783166410575 5.839760154323216, 93.65805659689569 6.216570979583534 C93.56930652383964 6.435785375897905, 93.4805564507836 6.654999772212276, 93.22505221428463 7.286100176203088 C93.02697829725903 7.69740490300963, 92.82890438023344 8.108709629816172, 92.724412514714 8.325689224335031 C92.56047189034807 8.616782403685097, 92.39653126598213 8.907875583035164, 92.15819473409623 9.33106622958945 C91.9598140020669 9.635832306671919, 91.76143327003759 9.94059838375439, 91.52872558274521 10.298099882199049 C91.38113980663778 10.495851376842218, 91.23355403053033 10.693602871485385, 90.83859168442454 11.2228164334572 C90.6316067304802 11.465952738137757, 90.42462177653584 11.709089042818315, 90.09062894735568 12.101416024703695 C89.78001046746708 12.42215510744016, 89.46939198757848 12.742894190176626, 89.28791091086276 12.930288301759093 C89.02741843713223 13.166860674147992, 88.76692596340169 13.40343304653689, 88.4337361155402 13.706027250644409 C88.1843672296046 13.904892301193296, 87.93499834366901 14.103757351742184, 87.53161454884189 14.425445193623217 C87.2728019381186 14.60598166704643, 87.01398932739534 14.786518140469646, 86.58525322178988 15.085585888053126 C86.28574702954144 15.267148301887882, 85.98624083729301 15.44871071572264, 85.59854093607088 15.68373667422101 C85.25458063453785 15.863180543213701, 84.91062033300483 16.042624412206393, 84.57553230411605 16.217439622243543 C84.24118131983164 16.3654468848167, 83.90683033554723 16.51345414738985, 83.52043108782874 16.68450163222839 C83.24406292725189 16.78620767003994, 82.96769476667505 16.88791370785149, 82.43757292442518 17.08300344619203 C82.03211154264409 17.203342255994436, 81.62665016086301 17.32368106579684, 81.33140751037115 17.411307534702527 C80.96876136800007 17.494079150211483, 80.60611522562901 17.576850765720444, 80.2064803166247 17.668064825839174 C79.93139054491908 17.7125392067755, 79.65630077321346 17.757013587711825, 79.06741391032112 17.85222024881843 C78.6489630267002 17.89258770230052, 78.2305121430793 17.932955155782615, 77.91888895965283 17.963017069506055 C77.59249653787343 17.973483839188212, 77.26610411609403 17.98395060887037, 76.765625 18 C76.765625 18, 76.765625 18, 76.765625 18 C34.761290462015836 18, -7.243044075968328 18, -76.765625 18 C-77.12693172044442 17.988413596716217, -77.48823844088884 17.97682719343243, -77.91888895965282 17.963017069506055 C-78.19457434219787 17.936422032212114, -78.47025972474292 17.909826994918177, -79.06741391032111 17.85222024881843 C-79.40178319452758 17.798162016020456, -79.73615247873404 17.744103783222478, -80.2064803166247 17.668064825839174 C-80.45266249362453 17.611875350427802, -80.69884467062437 17.55568587501643, -81.33140751037112 17.41130753470253 C-81.60135876885762 17.33118741818681, -81.87131002734411 17.251067301671092, -82.43757292442517 17.083003446192038 C-82.76520524353825 16.962431724158463, -83.09283756265134 16.841860002124893, -83.52043108782874 16.68450163222839 C-83.76187023125878 16.577623685469632, -84.00330937468883 16.470745738710875, -84.57553230411604 16.217439622243546 C-84.80055050390347 16.10004777154548, -85.0255687036909 15.982655920847414, -85.59854093607088 15.683736674221013 C-85.84055426933679 15.537026769367001, -86.08256760260272 15.390316864512988, -86.58525322178987 15.085585888053139 C-86.96254580423589 14.822402915271455, -87.33983838668189 14.559219942489772, -87.53161454884189 14.42544519362322 C-87.71771701980072 14.27703342542829, -87.90381949075956 14.12862165723336, -88.43373611554019 13.706027250644423 C-88.63738040120896 13.521082898532578, -88.84102468687774 13.336138546420733, -89.28791091086275 12.930288301759106 C-89.5109876694216 12.699943233604605, -89.73406442798044 12.469598165450105, -90.09062894735568 12.101416024703703 C-90.37078840369125 11.772324785767267, -90.65094786002682 11.443233546830834, -90.83859168442453 11.222816433457206 C-91.11247061411385 10.855843618557312, -91.38634954380315 10.488870803657418, -91.5287255827452 10.29809988219906 C-91.75096334517146 9.956682999917238, -91.97320110759772 9.615266117635416, -92.15819473409623 9.33106622958946 C-92.3649533102282 8.963945441091033, -92.57171188636016 8.596824652592606, -92.724412514714 8.325689224335036 C-92.88686990481024 7.9883429777689186, -93.04932729490646 7.650996731202801, -93.22505221428463 7.286100176203095 C-93.37754829145685 6.909431917276626, -93.53004436862906 6.532763658350157, -93.65805659689568 6.2165709795835475 C-93.74235623675109 5.962673895662628, -93.82665587660652 5.708776811741708, -94.0216463546599 5.121496559358584 C-94.0873249857037 4.871035473889758, -94.15300361674753 4.6205743884209305, -94.31432741927281 4.005376811213663 C-94.38031457088447 3.666546734077273, -94.44630172249612 3.327716656940883, -94.5348971014601 2.8727981106008347 C-94.57827903402146 2.536336408386414, -94.62166096658284 2.1998747061719928, -94.68244903308556 1.7284144663382852 C-94.70694034222906 1.3469425573993163, -94.73143165137256 0.9654706484603477, -94.75637689161238 0.5769283962897952 C-94.75637689161238 0.20649491612605164, -94.75637689161238 -0.16393856403769191, -94.75637689161238 -0.5769283962897864 C-94.72961956277508 -0.9936953910576137, -94.70286223393781 -1.410462385825441, -94.68244903308556 -1.7284144663382603 C-94.64526503035478 -2.0168062487064153, -94.60808102762398 -2.30519803107457, -94.5348971014601 -2.8727981106008262 C-94.47459020453002 -3.182461280469613, -94.41428330759994 -3.492124450338399, -94.31432741927283 -4.005376811213655 C-94.23059956066778 -4.324667423958143, -94.14687170206274 -4.643958036702631, -94.0216463546599 -5.121496559358575 C-93.88824730110015 -5.52327325442771, -93.75484824754041 -5.925049949496843, -93.65805659689569 -6.2165709795835244 C-93.543558094365 -6.499384494512297, -93.4290595918343 -6.78219800944107, -93.22505221428463 -7.286100176203086 C-93.09316440136227 -7.559968041683496, -92.96127658843992 -7.833835907163905, -92.724412514714 -8.32568922433503 C-92.59805132601558 -8.550056310326921, -92.47169013731717 -8.774423396318811, -92.15819473409623 -9.331066229589455 C-91.94040232105411 -9.665653861473794, -91.72260990801199 -10.000241493358132, -91.52872558274521 -10.298099882199054 C-91.28690089843812 -10.622122928488599, -91.04507621413103 -10.946145974778146, -90.83859168442454 -11.2228164334572 C-90.6436482354271 -11.45180810124609, -90.44870478642964 -11.68079976903498, -90.09062894735568 -12.101416024703695 C-89.84157288017892 -12.358586861947098, -89.59251681300215 -12.615757699190501, -89.28791091086276 -12.930288301759086 C-88.97813104096728 -13.211622183271947, -88.6683511710718 -13.492956064784808, -88.4337361155402 -13.706027250644407 C-88.25311674946555 -13.85006638860576, -88.07249738339088 -13.994105526567111, -87.5316145488419 -14.425445193623215 C-87.2170723071577 -14.644856245107928, -86.90253006547348 -14.864267296592642, -86.58525322178988 -15.085585888053124 C-86.38375230086628 -15.207736930467869, -86.18225137994266 -15.329887972882615, -85.59854093607089 -15.683736674221008 C-85.29456181307188 -15.84232238798167, -84.99058269007287 -16.000908101742333, -84.57553230411605 -16.217439622243543 C-84.24409968538583 -16.364155010956093, -83.91266706665562 -16.510870399668644, -83.52043108782874 -16.684501632228386 C-83.1359568407761 -16.825991709184738, -82.75148259372345 -16.967481786141093, -82.43757292442518 -17.08300344619203 C-82.03416095020808 -17.202734002587004, -81.63074897599098 -17.322464558981974, -81.33140751037115 -17.411307534702523 C-80.98127477053373 -17.491223047740757, -80.63114203069632 -17.57113856077899, -80.2064803166247 -17.668064825839174 C-79.87231990535453 -17.722089289680646, -79.53815949408435 -17.776113753522115, -79.06741391032112 -17.85222024881843 C-78.74615063088686 -17.88321213100983, -78.42488735145258 -17.914204013201232, -77.91888895965283 -17.963017069506055 C-77.54319709178918 -17.97506477646858, -77.16750522392555 -17.987112483431112, -76.765625 -18 C-76.765625 -18, -76.765625 -18, -76.765625 -18" stroke="none" stroke-width="0" fill="#F4EFE6" style="fill:#F4EFE6 !important;stroke:#0A1628 !important"/><path d="M-76.765625 -18 C-34.826249409260924 -18, 7.113126181478151 -18, 76.765625 -18 M-76.765625 -18 C-33.122724040116864 -18, 10.520176919766271 -18, 76.765625 -18 M76.765625 -18 C76.765625 -18, 76.765625 -18, 76.765625 -18 M76.765625 -18 C76.765625 -18, 76.765625 -18, 76.765625 -18 M76.765625 -18 C77.04995418266755 -17.990882116525032, 77.3342833653351 -17.981764233050065, 77.91888895965283 -17.963017069506055 M76.765625 -18 C77.10638198357793 -17.989072586779887, 77.44713896715587 -17.978145173559774, 77.91888895965283 -17.963017069506055 M77.91888895965283 -17.963017069506055 C78.1808843716629 -17.937742687205027, 78.44287978367295 -17.912468304904, 79.06741391032111 -17.85222024881843 M77.91888895965283 -17.963017069506055 C78.22021922342158 -17.933948101362947, 78.52154948719033 -17.90487913321984, 79.06741391032111 -17.85222024881843 M79.06741391032111 -17.85222024881843 C79.49017318956486 -17.783871807097476, 79.91293246880859 -17.715523365376526, 80.20648031662469 -17.668064825839178 M79.06741391032111 -17.85222024881843 C79.4804734536265 -17.785439985181412, 79.8935329969319 -17.718659721544398, 80.20648031662469 -17.668064825839178 M80.20648031662469 -17.668064825839178 C80.59376800963959 -17.57966893719691, 80.98105570265449 -17.491273048554646, 81.33140751037112 -17.41130753470253 M80.20648031662469 -17.668064825839178 C80.43653975192383 -17.615555261010265, 80.66659918722297 -17.56304569618135, 81.33140751037112 -17.41130753470253 M81.33140751037112 -17.41130753470253 C81.68920677550767 -17.30511459093667, 82.0470060406442 -17.198921647170813, 82.43757292442517 -17.083003446192034 M81.33140751037112 -17.41130753470253 C81.70480319648206 -17.300485655058754, 82.078198882593 -17.18966377541498, 82.43757292442517 -17.083003446192034 M82.43757292442517 -17.083003446192034 C82.69897791246392 -16.986803994192552, 82.96038290050268 -16.89060454219307, 83.52043108782874 -16.68450163222839 M82.43757292442517 -17.083003446192034 C82.7258023589386 -16.976932349927406, 83.01403179345202 -16.87086125366278, 83.52043108782874 -16.68450163222839 M83.52043108782874 -16.68450163222839 C83.76769415930248 -16.575045605285375, 84.01495723077622 -16.46558957834236, 84.57553230411605 -16.217439622243546 M83.52043108782874 -16.68450163222839 C83.90076533990026 -16.516138941051057, 84.28109959197178 -16.34777624987373, 84.57553230411605 -16.217439622243546 M84.57553230411605 -16.217439622243546 C84.8284580783097 -16.08548840785341, 85.08138385250335 -15.953537193463275, 85.59854093607088 -15.683736674221011 M84.57553230411605 -16.217439622243546 C84.94135803679009 -16.026588571830064, 85.30718376946412 -15.835737521416585, 85.59854093607088 -15.683736674221011 M85.59854093607088 -15.683736674221011 C85.82249279250446 -15.547975742763782, 86.04644464893804 -15.412214811306553, 86.58525322178987 -15.085585888053133 M85.59854093607088 -15.683736674221011 C85.97619663065551 -15.454799572812597, 86.35385232524015 -15.225862471404183, 86.58525322178987 -15.085585888053133 M86.58525322178987 -15.085585888053133 C86.86571776702787 -14.889945962409588, 87.14618231226588 -14.694306036766042, 87.53161454884189 -14.425445193623219 M86.58525322178987 -15.085585888053133 C86.80529521736626 -14.932094117403501, 87.02533721294267 -14.778602346753868, 87.53161454884189 -14.425445193623219 M87.53161454884189 -14.425445193623219 C87.82627331328466 -14.190462670179134, 88.12093207772745 -13.95548014673505, 88.43373611554019 -13.706027250644421 M87.53161454884189 -14.425445193623219 C87.82707385826696 -14.189824256859158, 88.12253316769201 -13.954203320095097, 88.43373611554019 -13.706027250644421 M88.43373611554019 -13.706027250644421 C88.64536419182106 -13.513832231138188, 88.85699226810195 -13.321637211631955, 89.28791091086275 -12.930288301759097 M88.43373611554019 -13.706027250644421 C88.73330199905602 -13.433969441314275, 89.03286788257186 -13.161911631984127, 89.28791091086275 -12.930288301759097 M89.28791091086275 -12.930288301759097 C89.48358674392611 -12.728236938836504, 89.67926257698949 -12.526185575913914, 90.09062894735568 -12.101416024703706 M89.28791091086275 -12.930288301759097 C89.48369688190598 -12.728123212329802, 89.6794828529492 -12.525958122900505, 90.09062894735568 -12.101416024703706 M90.09062894735568 -12.101416024703706 C90.30937418035269 -11.844465427069055, 90.5281194133497 -11.587514829434403, 90.83859168442453 -11.222816433457204 M90.09062894735568 -12.101416024703706 C90.25813199743729 -11.904657410884285, 90.42563504751891 -11.707898797064862, 90.83859168442453 -11.222816433457204 M90.83859168442453 -11.222816433457204 C91.01798968676549 -10.982439453814552, 91.19738768910645 -10.742062474171897, 91.5287255827452 -10.298099882199057 M90.83859168442453 -11.222816433457204 C91.01246096197568 -10.989847441355712, 91.18633023952681 -10.756878449254222, 91.5287255827452 -10.298099882199057 M91.5287255827452 -10.298099882199057 C91.77263245419287 -9.923393429489828, 92.01653932564057 -9.548686976780598, 92.15819473409623 -9.331066229589453 M91.5287255827452 -10.298099882199057 C91.65966246216962 -10.096945673927952, 91.79059934159405 -9.895791465656846, 92.15819473409623 -9.331066229589453 M92.15819473409623 -9.331066229589453 C92.37966634129218 -8.937820964580974, 92.60113794848813 -8.544575699572494, 92.724412514714 -8.325689224335035 M92.15819473409623 -9.331066229589453 C92.29430639155834 -9.089386198965611, 92.43041804902045 -8.847706168341768, 92.724412514714 -8.325689224335035 M92.724412514714 -8.325689224335035 C92.86004290913449 -8.044049808295355, 92.99567330355498 -7.762410392255677, 93.22505221428463 -7.286100176203093 M92.724412514714 -8.325689224335035 C92.9055351913396 -7.949584110917558, 93.08665786796517 -7.57347899750008, 93.22505221428463 -7.286100176203093 M93.22505221428463 -7.286100176203093 C93.34265804714742 -6.995611495277872, 93.46026388001023 -6.705122814352652, 93.65805659689568 -6.216570979583546 M93.22505221428463 -7.286100176203093 C93.31485112255004 -7.064295136643751, 93.40465003081545 -6.842490097084409, 93.65805659689568 -6.216570979583546 M93.65805659689568 -6.216570979583546 C93.76313074728708 -5.900104379897017, 93.86820489767847 -5.583637780210488, 94.0216463546599 -5.121496559358589 M93.65805659689568 -6.216570979583546 C93.73359377500277 -5.989065034339874, 93.80913095310989 -5.761559089096203, 94.0216463546599 -5.121496559358589 M94.0216463546599 -5.121496559358589 C94.09691060425753 -4.834481355910667, 94.17217485385517 -4.5474661524627455, 94.31432741927283 -4.005376811213661 M94.0216463546599 -5.121496559358589 C94.08564993894305 -4.8774231531580385, 94.14965352322619 -4.633349746957488, 94.31432741927283 -4.005376811213661 M94.31432741927283 -4.005376811213661 C94.37318589172881 -3.703150994894731, 94.4320443641848 -3.4009251785758012, 94.5348971014601 -2.872798110600833 M94.31432741927283 -4.005376811213661 C94.37053588243693 -3.7167582325288926, 94.42674434560104 -3.428139653844125, 94.5348971014601 -2.872798110600833 M94.5348971014601 -2.872798110600833 C94.58649879364272 -2.4725855759391187, 94.63810048582533 -2.0723730412774044, 94.68244903308556 -1.728414466338275 M94.5348971014601 -2.872798110600833 C94.5710461548046 -2.5924331912988072, 94.60719520814912 -2.3120682719967816, 94.68244903308556 -1.728414466338275 M94.68244903308556 -1.728414466338275 C94.7095919869971 -1.3056410497679733, 94.73673494090865 -0.8828676331976717, 94.75637689161238 -0.576928396289793 M94.68244903308556 -1.728414466338275 C94.71017749545466 -1.2965212829275157, 94.73790595782377 -0.8646280995167562, 94.75637689161238 -0.576928396289793 M94.75637689161238 -0.576928396289793 C94.75637689161238 -0.2753956142274266, 94.75637689161238 0.0261371678349398, 94.75637689161238 0.5769283962897886 M94.75637689161238 -0.576928396289793 C94.75637689161238 -0.24347782494041198, 94.75637689161238 0.08997274640896902, 94.75637689161238 0.5769283962897886 M94.75637689161238 0.5769283962897886 C94.73258037751123 0.9475783116157586, 94.70878386341006 1.3182282269417285, 94.68244903308556 1.7284144663382628 M94.75637689161238 0.5769283962897886 C94.72866215870624 1.008607732232643, 94.7009474258001 1.4402870681754973, 94.68244903308556 1.7284144663382628 M94.68244903308556 1.7284144663382628 C94.64593253809024 2.011629190524495, 94.60941604309491 2.2948439147107274, 94.5348971014601 2.8727981106008205 M94.68244903308556 1.7284144663382628 C94.64527449365863 2.0167328531904185, 94.6080999542317 2.305051240042574, 94.5348971014601 2.8727981106008205 M94.5348971014601 2.8727981106008205 C94.44800624971124 3.318964269943217, 94.36111539796238 3.7651304292856134, 94.31432741927283 4.005376811213657 M94.5348971014601 2.8727981106008205 C94.45143664637152 3.301349908107305, 94.36797619128292 3.7299017056137895, 94.31432741927283 4.005376811213657 M94.31432741927283 4.005376811213657 C94.23602071123393 4.30399422730789, 94.15771400319505 4.602611643402123, 94.0216463546599 5.121496559358577 M94.31432741927283 4.005376811213657 C94.22085041191333 4.36184515346668, 94.12737340455384 4.718313495719702, 94.0216463546599 5.121496559358577 M94.0216463546599 5.121496559358577 C93.94781973080862 5.343850587723519, 93.87399310695734 5.566204616088462, 93.65805659689569 6.216570979583534 M94.0216463546599 5.121496559358577 C93.93325788368595 5.387708551141699, 93.84486941271203 5.653920542924821, 93.65805659689569 6.216570979583534 M93.65805659689569 6.216570979583534 C93.55159779163361 6.479526286821867, 93.44513898637152 6.742481594060199, 93.22505221428463 7.286100176203088 M93.65805659689569 6.216570979583534 C93.5534630501355 6.474919062259859, 93.44886950337532 6.733267144936185, 93.22505221428463 7.286100176203088 M93.22505221428463 7.286100176203088 C93.03599078344288 7.678690282612552, 92.84692935260114 8.071280389022016, 92.724412514714 8.325689224335031 M93.22505221428463 7.286100176203088 C93.10625882406316 7.532777192769325, 92.9874654338417 7.779454209335562, 92.724412514714 8.325689224335031 M92.724412514714 8.325689224335031 C92.59681532503703 8.552250955223016, 92.46921813536005 8.778812686111, 92.15819473409623 9.33106622958945 M92.724412514714 8.325689224335031 C92.50865130310945 8.708795103730731, 92.29289009150489 9.091900983126429, 92.15819473409623 9.33106622958945 M92.15819473409623 9.33106622958945 C92.00467636126592 9.566911675712023, 91.8511579884356 9.802757121834595, 91.52872558274521 10.298099882199049 M92.15819473409623 9.33106622958945 C91.9914654919788 9.587207118552149, 91.82473624986137 9.843348007514846, 91.52872558274521 10.298099882199049 M91.52872558274521 10.298099882199049 C91.26756944156459 10.648025319567173, 91.00641330038397 10.997950756935296, 90.83859168442454 11.2228164334572 M91.52872558274521 10.298099882199049 C91.26602622953583 10.650093083096213, 91.00332687632644 11.002086283993375, 90.83859168442454 11.2228164334572 M90.83859168442454 11.2228164334572 C90.57591240056212 11.531374467156688, 90.31323311669968 11.839932500856177, 90.09062894735568 12.101416024703695 M90.83859168442454 11.2228164334572 C90.59095114503339 11.51370910217193, 90.34331060564222 11.804601770886661, 90.09062894735568 12.101416024703695 M90.09062894735568 12.101416024703695 C89.77476943345579 12.427566905353709, 89.4589099195559 12.753717786003723, 89.28791091086276 12.930288301759093 M90.09062894735568 12.101416024703695 C89.91825261778325 12.279408737347081, 89.74587628821084 12.457401449990467, 89.28791091086276 12.930288301759093 M89.28791091086276 12.930288301759093 C89.10826312742685 13.093439665455707, 88.92861534399094 13.25659102915232, 88.4337361155402 13.706027250644409 M89.28791091086276 12.930288301759093 C88.99480885350867 13.196475835192606, 88.70170679615457 13.462663368626119, 88.4337361155402 13.706027250644409 M88.4337361155402 13.706027250644409 C88.08086976062465 13.987428778521489, 87.72800340570912 14.268830306398566, 87.53161454884189 14.425445193623217 M88.4337361155402 13.706027250644409 C88.13944650714001 13.94071538196819, 87.8451568987398 14.175403513291972, 87.53161454884189 14.425445193623217 M87.53161454884189 14.425445193623217 C87.24979898473636 14.622027531544088, 86.96798342063083 14.818609869464959, 86.58525322178988 15.085585888053126 M87.53161454884189 14.425445193623217 C87.16460016941423 14.681458536915537, 86.79758578998656 14.937471880207857, 86.58525322178988 15.085585888053126 M86.58525322178988 15.085585888053126 C86.31057443940628 15.252097780125762, 86.03589565702268 15.4186096721984, 85.59854093607088 15.68373667422101 M86.58525322178988 15.085585888053126 C86.29521962216866 15.261405960570134, 86.00518602254743 15.437226033087141, 85.59854093607088 15.68373667422101 M85.59854093607088 15.68373667422101 C85.33082875873188 15.823401945660928, 85.0631165813929 15.963067217100845, 84.57553230411605 16.217439622243543 M85.59854093607088 15.68373667422101 C85.3202845362201 15.82890285979143, 85.04202813636932 15.974069045361851, 84.57553230411605 16.217439622243543 M84.57553230411605 16.217439622243543 C84.16830913406946 16.397705239777025, 83.76108596402287 16.57797085731051, 83.52043108782874 16.68450163222839 M84.57553230411605 16.217439622243543 C84.25076461842154 16.3612046428094, 83.92599693272703 16.504969663375256, 83.52043108782874 16.68450163222839 M83.52043108782874 16.68450163222839 C83.128351031169 16.828790717427484, 82.73627097450927 16.97307980262658, 82.43757292442518 17.08300344619203 M83.52043108782874 16.68450163222839 C83.16749857209311 16.814384060491516, 82.81456605635746 16.94426648875464, 82.43757292442518 17.08300344619203 M82.43757292442518 17.08300344619203 C82.04860762010637 17.19844630679331, 81.65964231578754 17.313889167394592, 81.33140751037115 17.411307534702527 M82.43757292442518 17.08300344619203 C82.13973910355426 17.171398960864895, 81.84190528268333 17.25979447553776, 81.33140751037115 17.411307534702527 M81.33140751037115 17.411307534702527 C81.02263109611481 17.481783736302127, 80.71385468185845 17.552259937901727, 80.2064803166247 17.668064825839174 M81.33140751037115 17.411307534702527 C81.08199807472727 17.468233610839572, 80.8325886390834 17.525159686976618, 80.2064803166247 17.668064825839174 M80.2064803166247 17.668064825839174 C79.85549415402043 17.72480954667069, 79.50450799141618 17.781554267502205, 79.06741391032112 17.85222024881843 M80.2064803166247 17.668064825839174 C79.76928735403321 17.738746793548906, 79.33209439144173 17.809428761258637, 79.06741391032112 17.85222024881843 M79.06741391032112 17.85222024881843 C78.64865381845107 17.89261753124844, 78.22989372658101 17.93301481367845, 77.91888895965283 17.963017069506055 M79.06741391032112 17.85222024881843 C78.68776679322693 17.888844349612047, 78.30811967613273 17.925468450405663, 77.91888895965283 17.963017069506055 M77.91888895965283 17.963017069506055 C77.51569928407712 17.975946577640673, 77.1125096085014 17.988876085775292, 76.765625 18 M77.91888895965283 17.963017069506055 C77.46758249286745 17.977489589481113, 77.01627602608208 17.991962109456175, 76.765625 18 M76.765625 18 C76.765625 18, 76.765625 18, 76.765625 18 M76.765625 18 C76.765625 18, 76.765625 18, 76.765625 18 M76.765625 18 C27.859503558094346 18, -21.046617883811308 18, -76.765625 18 M76.765625 18 C30.784687227023255 18, -15.19625054595349 18, -76.765625 18 M-76.765625 18 C-77.15855228258343 17.98739958683411, -77.55147956516687 17.974799173668217, -77.91888895965282 17.963017069506055 M-76.765625 18 C-77.08326748464796 17.98981382377093, -77.40090996929592 17.979627647541857, -77.91888895965282 17.963017069506055 M-77.91888895965282 17.963017069506055 C-78.24076793931847 17.93196579145382, -78.56264691898413 17.900914513401585, -79.06741391032111 17.85222024881843 M-77.91888895965282 17.963017069506055 C-78.32587320201024 17.923755789115997, -78.73285744436767 17.88449450872594, -79.06741391032111 17.85222024881843 M-79.06741391032111 17.85222024881843 C-79.30831784153523 17.81327276945762, -79.54922177274935 17.77432529009681, -80.2064803166247 17.668064825839174 M-79.06741391032111 17.85222024881843 C-79.44488767093196 17.7911932185556, -79.82236143154282 17.73016618829277, -80.2064803166247 17.668064825839174 M-80.2064803166247 17.668064825839174 C-80.43528303504223 17.615842098437646, -80.66408575345977 17.56361937103612, -81.33140751037112 17.41130753470253 M-80.2064803166247 17.668064825839174 C-80.53395824430633 17.593320125839032, -80.86143617198796 17.518575425838893, -81.33140751037112 17.41130753470253 M-81.33140751037112 17.41130753470253 C-81.5988533641775 17.331931009144732, -81.86629921798388 17.25255448358693, -82.43757292442517 17.083003446192038 M-81.33140751037112 17.41130753470253 C-81.59099878976369 17.33426220560125, -81.85059006915625 17.257216876499967, -82.43757292442517 17.083003446192038 M-82.43757292442517 17.083003446192038 C-82.74991502733603 16.96805866506209, -83.06225713024689 16.853113883932146, -83.52043108782874 16.68450163222839 M-82.43757292442517 17.083003446192038 C-82.72612418899266 16.976813913492553, -83.01467545356014 16.870624380793068, -83.52043108782874 16.68450163222839 M-83.52043108782874 16.68450163222839 C-83.73662874398158 16.588797343125133, -83.95282640013441 16.493093054021877, -84.57553230411604 16.217439622243546 M-83.52043108782874 16.68450163222839 C-83.85406949779893 16.536809805166374, -84.18770790776912 16.389117978104363, -84.57553230411604 16.217439622243546 M-84.57553230411604 16.217439622243546 C-84.82871169735412 16.085356094960375, -85.08189109059222 15.953272567677207, -85.59854093607088 15.683736674221013 M-84.57553230411604 16.217439622243546 C-84.78264706393728 16.109387984708142, -84.98976182375851 16.00133634717274, -85.59854093607088 15.683736674221013 M-85.59854093607088 15.683736674221013 C-85.96158823040972 15.463655270890088, -86.32463552474857 15.243573867559162, -86.58525322178987 15.085585888053139 M-85.59854093607088 15.683736674221013 C-85.89184687857163 15.505932888220016, -86.18515282107238 15.328129102219018, -86.58525322178987 15.085585888053139 M-86.58525322178987 15.085585888053139 C-86.90537557616646 14.862282391513393, -87.22549793054307 14.638978894973649, -87.53161454884189 14.42544519362322 M-86.58525322178987 15.085585888053139 C-86.87920600832379 14.880537149178114, -87.17315879485771 14.675488410303089, -87.53161454884189 14.42544519362322 M-87.53161454884189 14.42544519362322 C-87.88140658629138 14.146495352114298, -88.23119862374085 13.867545510605378, -88.43373611554019 13.706027250644423 M-87.53161454884189 14.42544519362322 C-87.81722856245561 14.197675618274378, -88.10284257606934 13.969906042925535, -88.43373611554019 13.706027250644423 M-88.43373611554019 13.706027250644423 C-88.70840669885843 13.456578694260193, -88.98307728217667 13.207130137875962, -89.28791091086275 12.930288301759106 M-88.43373611554019 13.706027250644423 C-88.64996066118965 13.509657839273558, -88.86618520683912 13.313288427902691, -89.28791091086275 12.930288301759106 M-89.28791091086275 12.930288301759106 C-89.50275960692964 12.708439383664036, -89.71760830299655 12.486590465568966, -90.09062894735568 12.101416024703703 M-89.28791091086275 12.930288301759106 C-89.52055294426822 12.690066302001796, -89.7531949776737 12.449844302244484, -90.09062894735568 12.101416024703703 M-90.09062894735568 12.101416024703703 C-90.3872788033261 11.752954224025855, -90.68392865929653 11.404492423348007, -90.83859168442453 11.222816433457206 M-90.09062894735568 12.101416024703703 C-90.30782513639761 11.846285022241778, -90.52502132543955 11.591154019779854, -90.83859168442453 11.222816433457206 M-90.83859168442453 11.222816433457206 C-91.05646717703888 10.930883122219683, -91.27434266965324 10.638949810982162, -91.5287255827452 10.29809988219906 M-90.83859168442453 11.222816433457206 C-91.08412171705618 10.893828557976937, -91.32965174968781 10.564840682496667, -91.5287255827452 10.29809988219906 M-91.5287255827452 10.29809988219906 C-91.72976044798612 9.98925634376901, -91.93079531322705 9.680412805338964, -92.15819473409623 9.33106622958946 M-91.5287255827452 10.29809988219906 C-91.69043002336541 10.049678437684221, -91.8521344639856 9.801256993169384, -92.15819473409623 9.33106622958946 M-92.15819473409623 9.33106622958946 C-92.37093470269194 8.953324873089988, -92.58367467128765 8.575583516590516, -92.724412514714 8.325689224335036 M-92.15819473409623 9.33106622958946 C-92.31174036432049 9.05843041494524, -92.46528599454474 8.785794600301022, -92.724412514714 8.325689224335036 M-92.724412514714 8.325689224335036 C-92.89846820501914 7.964258859221246, -93.07252389532428 7.602828494107456, -93.22505221428463 7.286100176203095 M-92.724412514714 8.325689224335036 C-92.89895809082998 7.963241600853173, -93.07350366694595 7.600793977371308, -93.22505221428463 7.286100176203095 M-93.22505221428463 7.286100176203095 C-93.3186354273696 7.054947830574888, -93.41221864045455 6.8237954849466815, -93.65805659689568 6.2165709795835475 M-93.22505221428463 7.286100176203095 C-93.33407209381345 7.016818966010939, -93.44309197334225 6.747537755818782, -93.65805659689568 6.2165709795835475 M-93.65805659689568 6.2165709795835475 C-93.78787177813123 5.82558833694233, -93.9176869593668 5.434605694301111, -94.0216463546599 5.121496559358584 M-93.65805659689568 6.2165709795835475 C-93.75778803697602 5.916195772108634, -93.85751947705636 5.61582056463372, -94.0216463546599 5.121496559358584 M-94.0216463546599 5.121496559358584 C-94.13565398762307 4.686736043649268, -94.24966162058625 4.251975527939952, -94.31432741927281 4.005376811213663 M-94.0216463546599 5.121496559358584 C-94.09979694854067 4.823474474209538, -94.17794754242144 4.525452389060493, -94.31432741927281 4.005376811213663 M-94.31432741927281 4.005376811213663 C-94.36187578001764 3.7612260281385606, -94.40942414076248 3.517075245063458, -94.5348971014601 2.8727981106008347 M-94.31432741927281 4.005376811213663 C-94.36739619373834 3.732879870422606, -94.42046496820389 3.4603829296315487, -94.5348971014601 2.8727981106008347 M-94.5348971014601 2.8727981106008347 C-94.58090843842525 2.515943267065295, -94.6269197753904 2.159088423529755, -94.68244903308556 1.7284144663382852 M-94.5348971014601 2.8727981106008347 C-94.58008447091642 2.522333796353072, -94.62527184037272 2.1718694821053095, -94.68244903308556 1.7284144663382852 M-94.68244903308556 1.7284144663382852 C-94.69841013750153 1.4798073814879675, -94.7143712419175 1.2312002966376498, -94.75637689161238 0.5769283962897952 M-94.68244903308556 1.7284144663382852 C-94.71154751023775 1.2751821968248727, -94.74064598738995 0.8219499273114602, -94.75637689161238 0.5769283962897952 M-94.75637689161238 0.5769283962897952 C-94.75637689161238 0.2753717852580901, -94.75637689161238 -0.026184825773615028, -94.75637689161238 -0.5769283962897864 M-94.75637689161238 0.5769283962897952 C-94.75637689161238 0.311809113926243, -94.75637689161238 0.0466898315626908, -94.75637689161238 -0.5769283962897864 M-94.75637689161238 -0.5769283962897864 C-94.73762209092126 -0.8690495556564688, -94.71886729023015 -1.1611707150231512, -94.68244903308556 -1.7284144663382603 M-94.75637689161238 -0.5769283962897864 C-94.73765398824554 -0.8685527290838412, -94.7189310848787 -1.160177061877896, -94.68244903308556 -1.7284144663382603 M-94.68244903308556 -1.7284144663382603 C-94.63812109641046 -2.072213189649185, -94.59379315973536 -2.416011912960109, -94.5348971014601 -2.8727981106008262 M-94.68244903308556 -1.7284144663382603 C-94.62693977510395 -2.1589333097008234, -94.57143051712234 -2.5894521530633865, -94.5348971014601 -2.8727981106008262 M-94.5348971014601 -2.8727981106008262 C-94.46730903237946 -3.219848560586451, -94.39972096329883 -3.566899010572075, -94.31432741927283 -4.005376811213655 M-94.5348971014601 -2.8727981106008262 C-94.4471797311517 -3.3232082680616695, -94.35946236084331 -3.7736184255225127, -94.31432741927283 -4.005376811213655 M-94.31432741927283 -4.005376811213655 C-94.20952329781956 -4.405040348708521, -94.1047191763663 -4.804703886203386, -94.0216463546599 -5.121496559358575 M-94.31432741927283 -4.005376811213655 C-94.23603504969493 -4.303939548541782, -94.15774268011704 -4.602502285869909, -94.0216463546599 -5.121496559358575 M-94.0216463546599 -5.121496559358575 C-93.90230514512378 -5.48093326804185, -93.78296393558765 -5.8403699767251265, -93.65805659689569 -6.2165709795835244 M-94.0216463546599 -5.121496559358575 C-93.91940600011455 -5.429428217460834, -93.81716564556922 -5.737359875563092, -93.65805659689569 -6.2165709795835244 M-93.65805659689569 -6.2165709795835244 C-93.52395483113752 -6.547804933687487, -93.38985306537934 -6.879038887791449, -93.22505221428463 -7.286100176203086 M-93.65805659689569 -6.2165709795835244 C-93.50992874050601 -6.582449648723316, -93.36180088411633 -6.9483283178631075, -93.22505221428463 -7.286100176203086 M-93.22505221428463 -7.286100176203086 C-93.05504075026491 -7.639132618902616, -92.8850292862452 -7.9921650616021465, -92.724412514714 -8.32568922433503 M-93.22505221428463 -7.286100176203086 C-93.03041664277269 -7.690265104981707, -92.83578107126075 -8.094430033760327, -92.724412514714 -8.32568922433503 M-92.724412514714 -8.32568922433503 C-92.52569601188462 -8.678530497336489, -92.32697950905523 -9.031371770337946, -92.15819473409623 -9.331066229589455 M-92.724412514714 -8.32568922433503 C-92.5913515159436 -8.561952501539071, -92.45829051717318 -8.798215778743115, -92.15819473409623 -9.331066229589455 M-92.15819473409623 -9.331066229589455 C-91.91057434947406 -9.711477635752612, -91.6629539648519 -10.091889041915767, -91.52872558274521 -10.298099882199054 M-92.15819473409623 -9.331066229589455 C-91.92979938817605 -9.681942813660621, -91.70140404225587 -10.032819397731787, -91.52872558274521 -10.298099882199054 M-91.52872558274521 -10.298099882199054 C-91.36947788914055 -10.511477283865949, -91.2102301955359 -10.724854685532843, -90.83859168442454 -11.2228164334572 M-91.52872558274521 -10.298099882199054 C-91.32298701854307 -10.57377081506114, -91.11724845434092 -10.849441747923226, -90.83859168442454 -11.2228164334572 M-90.83859168442454 -11.2228164334572 C-90.61570386482079 -11.484633149039999, -90.39281604521702 -11.746449864622795, -90.09062894735568 -12.101416024703695 M-90.83859168442454 -11.2228164334572 C-90.61967975656185 -11.479962840366278, -90.40076782869917 -11.737109247275358, -90.09062894735568 -12.101416024703695 M-90.09062894735568 -12.101416024703695 C-89.91607025483572 -12.281662206265748, -89.74151156231575 -12.4619083878278, -89.28791091086276 -12.930288301759086 M-90.09062894735568 -12.101416024703695 C-89.79464336137076 -12.407045443101667, -89.49865777538585 -12.712674861499638, -89.28791091086276 -12.930288301759086 M-89.28791091086276 -12.930288301759086 C-88.9989880299649 -13.192680417709994, -88.71006514906705 -13.455072533660903, -88.4337361155402 -13.706027250644407 M-89.28791091086276 -12.930288301759086 C-88.98650871591651 -13.204013800544185, -88.68510652097027 -13.477739299329286, -88.4337361155402 -13.706027250644407 M-88.4337361155402 -13.706027250644407 C-88.09988795530171 -13.97226227436195, -87.76603979506324 -14.238497298079494, -87.5316145488419 -14.425445193623215 M-88.4337361155402 -13.706027250644407 C-88.25050139244458 -13.852152066232406, -88.06726666934895 -13.998276881820404, -87.5316145488419 -14.425445193623215 M-87.5316145488419 -14.425445193623215 C-87.32944223002447 -14.56647185133163, -87.12726991120704 -14.707498509040043, -86.58525322178988 -15.085585888053124 M-87.5316145488419 -14.425445193623215 C-87.22075219416848 -14.642289315228947, -86.90988983949507 -14.859133436834677, -86.58525322178988 -15.085585888053124 M-86.58525322178988 -15.085585888053124 C-86.2661430645178 -15.279032340690902, -85.94703290724573 -15.47247879332868, -85.59854093607089 -15.683736674221008 M-86.58525322178988 -15.085585888053124 C-86.21192287837411 -15.311900936164387, -85.83859253495835 -15.538215984275649, -85.59854093607089 -15.683736674221008 M-85.59854093607089 -15.683736674221008 C-85.35213098126113 -15.812288589812153, -85.10572102645136 -15.940840505403298, -84.57553230411605 -16.217439622243543 M-85.59854093607089 -15.683736674221008 C-85.27200788370742 -15.854088758484627, -84.94547483134394 -16.02444084274825, -84.57553230411605 -16.217439622243543 M-84.57553230411605 -16.217439622243543 C-84.231320220256 -16.369812101079706, -83.88710813639594 -16.522184579915873, -83.52043108782874 -16.684501632228386 M-84.57553230411605 -16.217439622243543 C-84.19822800227857 -16.384461044332546, -83.82092370044109 -16.55148246642155, -83.52043108782874 -16.684501632228386 M-83.52043108782874 -16.684501632228386 C-83.24731243400556 -16.785011821516473, -82.9741937801824 -16.88552201080456, -82.43757292442518 -17.08300344619203 M-83.52043108782874 -16.684501632228386 C-83.25896408122541 -16.78072390763292, -82.9974970746221 -16.876946183037457, -82.43757292442518 -17.08300344619203 M-82.43757292442518 -17.08300344619203 C-82.00105168672296 -17.212560658195315, -81.56453044902074 -17.342117870198603, -81.33140751037115 -17.411307534702523 M-82.43757292442518 -17.08300344619203 C-82.09772926065176 -17.18386726172419, -81.75788559687834 -17.284731077256346, -81.33140751037115 -17.411307534702523 M-81.33140751037115 -17.411307534702523 C-80.90634275117158 -17.508325792183047, -80.48127799197201 -17.605344049663568, -80.2064803166247 -17.668064825839174 M-81.33140751037115 -17.411307534702523 C-81.0608856293065 -17.47305238873528, -80.79036374824183 -17.534797242768036, -80.2064803166247 -17.668064825839174 M-80.2064803166247 -17.668064825839174 C-79.82667752755609 -17.72946839536117, -79.44687473848745 -17.79087196488317, -79.06741391032112 -17.85222024881843 M-80.2064803166247 -17.668064825839174 C-79.83067214016314 -17.728822577373545, -79.45486396370158 -17.789580328907917, -79.06741391032112 -17.85222024881843 M-79.06741391032112 -17.85222024881843 C-78.60963452997589 -17.89638167508008, -78.15185514963066 -17.94054310134173, -77.91888895965283 -17.963017069506055 M-79.06741391032112 -17.85222024881843 C-78.69381825792235 -17.88826057209083, -78.32022260552358 -17.92430089536323, -77.91888895965283 -17.963017069506055 M-77.91888895965283 -17.963017069506055 C-77.50292314848846 -17.976356283441763, -77.0869573373241 -17.98969549737747, -76.765625 -18 M-77.91888895965283 -17.963017069506055 C-77.65476912744371 -17.971486878446935, -77.3906492952346 -17.979956687387816, -76.765625 -18 M-76.765625 -18 C-76.765625 -18, -76.765625 -18, -76.765625 -18 M-76.765625 -18 C-76.765625 -18, -76.765625 -18, -76.765625 -18" stroke="#0A1628" stroke-width="1.3" fill="none" stroke-dasharray="0 0" style="fill:#F4EFE6 !important;stroke:#0A1628 !important"/></g><g class="label" style="color:#0A1628 !important;font-weight:bold !important" transform="translate(-82.765625, -10.5)"><rect/><foreignObject width="165.53125" height="21"><div style="color: rgb(10, 22, 40) !important; font-weight: bold !important; display: table-cell; white-space: nowrap; line-height: 1.5; max-width: 200px; text-align: center;" xmlns="http://www.w3.org/1999/xhtml"><span style="color:#0A1628 !important;font-weight:bold !important" class="nodeLabel"><p>Hong Kong MTR signalling</p></span></div></foreignObject></g></g><g class="node default g2" id="my-svg-flowchart-UR-1" data-look="classic" transform="translate(111.75, 52.25)"><rect class="basic label-container" style="fill:#0A1628 !important;stroke:#D4A84B !important" x="-86.90625" y="-44.25" width="173.8125" height="88.5"/><g class="label" style="color:#F4EFE6 !important;font-size:13px !important" transform="translate(-56.90625, -29.25)"><rect/><foreignObject width="113.8125" height="58.5"><div style="color: rgb(244, 239, 230) !important; font-size: 13px !important; display: table-cell; white-space: nowrap; line-height: 1.5; max-width: 200px; text-align: center;" xmlns="http://www.w3.org/1999/xhtml"><span style="color:#F4EFE6 !important;font-size:13px !important" class="nodeLabel"><p>Urban lines (7)<br />resignalling to 2029<br />Thales SelTrac</p></span></div></foreignObject></g></g><g class="node default g4" id="my-svg-flowchart-DL-3" data-look="classic" transform="translate(111.75, 181)"><rect class="basic label-container" style="fill:#D4A84B !important;stroke:#0A1628 !important" x="-75.484375" y="-34.5" width="150.96875" height="69"/><g class="label" style="color:#0A1628 !important;font-size:13px !important" transform="translate(-45.484375, -19.5)"><rect/><foreignObject width="90.96875" height="39"><div style="color: rgb(10, 22, 40) !important; font-size: 13px !important; display: table-cell; white-space: nowrap; line-height: 1.5; max-width: 200px; text-align: center;" xmlns="http://www.w3.org/1999/xhtml"><span style="color:#0A1628 !important;font-size:13px !important" class="nodeLabel"><p>Disneyland Line<br />2005 · SelTrac</p></span></div></foreignObject></g></g><g class="node default g4" id="my-svg-flowchart-SI-5" data-look="classic" transform="translate(111.75, 300)"><rect class="basic label-container" style="fill:#D4A84B !important;stroke:#0A1628 !important" x="-103.75" y="-34.5" width="207.5" height="69"/><g class="label" style="color:#0A1628 !important;font-size:13px !important" transform="translate(-73.75, -19.5)"><rect/><foreignObject width="147.5" height="39"><div style="color: rgb(10, 22, 40) !important; font-size: 13px !important; display: table-cell; white-space: nowrap; line-height: 1.5; max-width: 200px; text-align: center;" xmlns="http://www.w3.org/1999/xhtml"><span style="color:#0A1628 !important;font-size:13px !important" class="nodeLabel"><p>South Island Line<br />2016 · Alstom Urbalis 400</p></span></div></foreignObject></g></g></g></g></g><defs><filter id="my-svg-drop-shadow" height="130%" width="130%"><feDropShadow dx="4" dy="4" stdDeviation="0" flood-opacity="0.06" flood-color="#000000"/></filter></defs><defs><filter id="my-svg-drop-shadow-small" height="150%" width="150%"><feDropShadow dx="2" dy="2" stdDeviation="0" flood-opacity="0.06" flood-color="#000000"/></filter></defs><linearGradient id="my-svg-gradient" gradientUnits="objectBoundingBox" x1="0%" y1="0%" x2="100%" y2="0%"><stop offset="0%" stop-color="#D4A84B" stop-opacity="1"/><stop offset="100%" stop-color="hsl(216, 20%, 0%)" stop-opacity="1"/></linearGradient></svg>