<svg id="my-svg" width="100%" xmlns="http://www.w3.org/2000/svg" xmlns:xlink="http://www.w3.org/1999/xlink" class="flowchart" style="max-width: 536.935px; background-color: rgb(244, 239, 230);" viewBox="0 0 536.9346313476562 442" role="graphics-document document" aria-roledescription="flowchart-v2"><style>#my-svg{font-size:14px;fill:#0A1628;}@keyframes edge-animation-frame{from{stroke-dashoffset:0;}}@keyframes dash{to{stroke-dashoffset:0;}}#my-svg .edge-animation-slow{stroke-dasharray:9,5!important;stroke-dashoffset:900;animation:dash 50s linear infinite;stroke-linecap:round;}#my-svg .edge-animation-fast{stroke-dasharray:9,5!important;stroke-dashoffset:900;animation:dash 20s linear infinite;stroke-linecap:round;}#my-svg .error-icon{fill:#EAE2D2;}#my-svg .error-text{fill:#151d2d;stroke:#151d2d;}#my-svg .edge-thickness-normal{stroke-width:1px;}#my-svg .edge-thickness-thick{stroke-width:3.5px;}#my-svg .edge-pattern-solid{stroke-dasharray:0;}#my-svg .edge-thickness-invisible{stroke-width:0;fill:none;}#my-svg .edge-pattern-dashed{stroke-dasharray:3;}#my-svg .edge-pattern-dotted{stroke-dasharray:2;}#my-svg .marker{fill:#1A1A1A;stroke:#1A1A1A;}#my-svg .marker.cross{stroke:#1A1A1A;}#my-svg svg{font-size:14px;}#my-svg p{margin:0;}#my-svg .label{color:#0A1628;}#my-svg .cluster-label text{fill:#151d2d;}#my-svg .cluster-label span{color:#151d2d;}#my-svg .cluster-label span p{background-color:transparent;}#my-svg .label text,#my-svg span{fill:#0A1628;color:#0A1628;}#my-svg .node rect,#my-svg .node circle,#my-svg .node ellipse,#my-svg .node polygon,#my-svg .node path{fill:#F4EFE6;stroke:#D4A84B;stroke-width:1px;}#my-svg .rough-node .label text,#my-svg .node .label text,#my-svg .image-shape .label,#my-svg .icon-shape .label{text-anchor:middle;}#my-svg .node .katex path{fill:#000;stroke:#000;stroke-width:1px;}#my-svg .rough-node .label,#my-svg .node .label,#my-svg .image-shape .label,#my-svg .icon-shape .label{text-align:center;}#my-svg .node.clickable{cursor:pointer;}#my-svg .root .anchor path{fill:#1A1A1A!important;stroke-width:0;stroke:#1A1A1A;}#my-svg .arrowheadPath{fill:#0b0b0b;}#my-svg .edgePath .path{stroke:#1A1A1A;stroke-width:1px;}#my-svg .flowchart-link{stroke:#1A1A1A;fill:none;}#my-svg .edgeLabel{background-color:#0A1628;text-align:center;}#my-svg .edgeLabel p{background-color:#0A1628;}#my-svg .edgeLabel rect{opacity:0.5;background-color:#0A1628;fill:#0A1628;}#my-svg .labelBkg{background-color:rgba(10, 22, 40, 0.5);}#my-svg .cluster rect{fill:#EAE2D2;stroke:hsl(40, 0%, 77.0588235294%);stroke-width:1px;}#my-svg .cluster text{fill:#151d2d;}#my-svg .cluster span{color:#151d2d;}#my-svg div.mermaidTooltip{position:absolute;text-align:center;max-width:200px;padding:2px;font-size:12px;background:#EAE2D2;border:1px solid hsl(40, 0%, 77.0588235294%);border-radius:2px;pointer-events:none;z-index:100;}#my-svg .flowchartTitleText{text-anchor:middle;font-size:18px;fill:#0A1628;}#my-svg rect.text{fill:none;stroke-width:0;}#my-svg .icon-shape,#my-svg .image-shape{background-color:#0A1628;text-align:center;}#my-svg .icon-shape p,#my-svg .image-shape p{background-color:#0A1628;padding:2px;}#my-svg .icon-shape .label rect,#my-svg .image-shape .label rect{opacity:0.5;background-color:#0A1628;fill:#0A1628;}#my-svg .label-icon{display:inline-block;height:1em;overflow:visible;vertical-align:-0.125em;}#my-svg .node .label-icon path{fill:currentColor;stroke:revert;stroke-width:revert;}#my-svg .node .neo-node{stroke:#D4A84B;}#my-svg [data-look="neo"].node rect,#my-svg [data-look="neo"].cluster rect,#my-svg [data-look="neo"].node polygon{stroke:url(#my-svg-gradient);filter:drop-shadow( 1px 2px 2px rgba(185,185,185,1));}#my-svg [data-look="neo"].node path{stroke:url(#my-svg-gradient);stroke-width:1px;}#my-svg [data-look="neo"].node .outer-path{filter:drop-shadow( 1px 2px 2px rgba(185,185,185,1));}#my-svg [data-look="neo"].node .neo-line path{stroke:#D4A84B;filter:none;}#my-svg [data-look="neo"].node circle{stroke:url(#my-svg-gradient);filter:drop-shadow( 1px 2px 2px rgba(185,185,185,1));}#my-svg [data-look="neo"].node circle .state-start{fill:#000000;}#my-svg [data-look="neo"].icon-shape .icon{fill:url(#my-svg-gradient);filter:drop-shadow( 1px 2px 2px rgba(185,185,185,1));}#my-svg [data-look="neo"].icon-shape .icon-neo path{stroke:url(#my-svg-gradient);filter:drop-shadow( 1px 2px 2px rgba(185,185,185,1));}#my-svg :root{--mermaid-font-family:"trebuchet ms",verdana,arial,sans-serif;}#my-svg .g4&gt;*{fill:#D4A84B!important;stroke:#0A1628!important;color:#0A1628!important;font-size:13px!important;}#my-svg .g4 span{fill:#D4A84B!important;stroke:#0A1628!important;color:#0A1628!important;font-size:13px!important;}#my-svg .g4 tspan{fill:#0A1628!important;}#my-svg .g2&gt;*{fill:#0A1628!important;stroke:#D4A84B!important;color:#F4EFE6!important;font-size:13px!important;}#my-svg .g2 span{fill:#0A1628!important;stroke:#D4A84B!important;color:#F4EFE6!important;font-size:13px!important;}#my-svg .g2 tspan{fill:#F4EFE6!important;}#my-svg .op&gt;*{fill:#F4EFE6!important;stroke:#0A1628!important;color:#0A1628!important;font-weight:bold!important;}#my-svg .op span{fill:#F4EFE6!important;stroke:#0A1628!important;color:#0A1628!important;font-weight:bold!important;}#my-svg .op tspan{fill:#0A1628!important;}</style><g><marker id="my-svg_flowchart-v2-pointEnd" class="marker flowchart-v2" viewBox="0 0 10 10" refX="5" refY="5" markerUnits="userSpaceOnUse" markerWidth="8" markerHeight="8" orient="auto"><path d="M 0 0 L 10 5 L 0 10 z" class="arrowMarkerPath" style="stroke-width: 1; stroke-dasharray: 1, 0;"/></marker><marker id="my-svg_flowchart-v2-pointStart" class="marker flowchart-v2" viewBox="0 0 10 10" refX="4.5" refY="5" markerUnits="userSpaceOnUse" markerWidth="8" markerHeight="8" orient="auto"><path d="M 0 5 L 10 10 L 10 0 z" class="arrowMarkerPath" style="stroke-width: 1; stroke-dasharray: 1, 0;"/></marker><marker id="my-svg_flowchart-v2-pointEnd-margin" class="marker flowchart-v2" viewBox="0 0 11.5 14" refX="11.5" refY="7" markerUnits="userSpaceOnUse" markerWidth="10.5" markerHeight="14" orient="auto"><path d="M 0 0 L 11.5 7 L 0 14 z" class="arrowMarkerPath" style="stroke-width: 0; stroke-dasharray: 1, 0;"/></marker><marker id="my-svg_flowchart-v2-pointStart-margin" class="marker flowchart-v2" viewBox="0 0 11.5 14" refX="1" refY="7" markerUnits="userSpaceOnUse" markerWidth="11.5" markerHeight="14" orient="auto"><polygon points="0,7 11.5,14 11.5,0" class="arrowMarkerPath" style="stroke-width: 0; stroke-dasharray: 1, 0;"/></marker><marker id="my-svg_flowchart-v2-circleEnd" class="marker flowchart-v2" viewBox="0 0 10 10" refX="11" refY="5" markerUnits="userSpaceOnUse" markerWidth="11" markerHeight="11" orient="auto"><circle cx="5" cy="5" r="5" class="arrowMarkerPath" style="stroke-width: 1; stroke-dasharray: 1, 0;"/></marker><marker id="my-svg_flowchart-v2-circleStart" class="marker flowchart-v2" viewBox="0 0 10 10" refX="-1" refY="5" markerUnits="userSpaceOnUse" markerWidth="11" markerHeight="11" orient="auto"><circle cx="5" cy="5" r="5" class="arrowMarkerPath" style="stroke-width: 1; stroke-dasharray: 1, 0;"/></marker><marker id="my-svg_flowchart-v2-circleEnd-margin" class="marker flowchart-v2" viewBox="0 0 10 10" refY="5" refX="12.25" markerUnits="userSpaceOnUse" markerWidth="14" markerHeight="14" orient="auto"><circle cx="5" cy="5" r="5" class="arrowMarkerPath" style="stroke-width: 0; stroke-dasharray: 1, 0;"/></marker><marker id="my-svg_flowchart-v2-circleStart-margin" class="marker flowchart-v2" viewBox="0 0 10 10" refX="-2" refY="5" markerUnits="userSpaceOnUse" markerWidth="14" markerHeight="14" orient="auto"><circle cx="5" cy="5" r="5" class="arrowMarkerPath" style="stroke-width: 0; stroke-dasharray: 1, 0;"/></marker><marker id="my-svg_flowchart-v2-crossEnd" class="marker cross flowchart-v2" viewBox="0 0 11 11" refX="12" refY="5.2" markerUnits="userSpaceOnUse" markerWidth="11" markerHeight="11" orient="auto"><path d="M 1,1 l 9,9 M 10,1 l -9,9" class="arrowMarkerPath" style="stroke-width: 2; stroke-dasharray: 1, 0;"/></marker><marker id="my-svg_flowchart-v2-crossStart" class="marker cross flowchart-v2" viewBox="0 0 11 11" refX="-1" refY="5.2" markerUnits="userSpaceOnUse" markerWidth="11" markerHeight="11" orient="auto"><path d="M 1,1 l 9,9 M 10,1 l -9,9" class="arrowMarkerPath" style="stroke-width: 2; stroke-dasharray: 1, 0;"/></marker><marker id="my-svg_flowchart-v2-crossEnd-margin" class="marker cross flowchart-v2" viewBox="0 0 15 15" refX="17.7" refY="7.5" markerUnits="userSpaceOnUse" markerWidth="12" markerHeight="12" orient="auto"><path d="M 1,1 L 14,14 M 1,14 L 14,1" class="arrowMarkerPath" style="stroke-width: 2.5;"/></marker><marker id="my-svg_flowchart-v2-crossStart-margin" class="marker cross flowchart-v2" viewBox="0 0 15 15" refX="-3.5" refY="7.5" markerUnits="userSpaceOnUse" markerWidth="12" markerHeight="12" orient="auto"><path d="M 1,1 L 14,14 M 1,14 L 14,1" class="arrowMarkerPath" style="stroke-width: 2.5; stroke-dasharray: 1, 0;"/></marker><g class="root"><g class="clusters"/><g class="edgePaths"><path d="M188.07,42.5L203.134,42.5C218.198,42.5,248.326,42.5,286.922,68.836C325.518,95.172,372.582,147.845,396.114,174.181L419.646,200.517" id="my-svg-L_L9_OP_0" class="edge-thickness-normal edge-pattern-solid edge-thickness-normal edge-pattern-solid flowchart-link" style=";" data-edge="true" data-et="edge" data-id="L_L9_OP_0" data-points="W3sieCI6MTg4LjA3MDMxMjUsInkiOjQyLjV9LHsieCI6Mjc4LjQ1MzEyNSwieSI6NDIuNX0seyJ4Ijo0MjIuMzExNjA0MjE5MzI0NDcsInkiOjIwMy41fV0=" data-look="classic" marker-end="url(#my-svg_flowchart-v2-pointEnd)"/><path d="M190.625,161.5L205.263,161.5C219.901,161.5,249.177,161.5,281.808,168.265C314.44,175.031,350.426,188.561,368.419,195.327L386.412,202.092" id="my-svg-L_SB_OP_0" class="edge-thickness-normal edge-pattern-solid edge-thickness-normal edge-pattern-solid flowchart-link" style=";" data-edge="true" data-et="edge" data-id="L_SB_OP_0" data-points="W3sieCI6MTkwLjYyNSwieSI6MTYxLjV9LHsieCI6Mjc4LjQ1MzEyNSwieSI6MTYxLjV9LHsieCI6MzkwLjE1NjQzMTMxMDMxNzEsInkiOjIwMy41fV0=" data-look="classic" marker-end="url(#my-svg_flowchart-v2-pointEnd)"/><path d="M210.063,280.5L221.461,280.5C232.859,280.5,255.656,280.5,285.046,273.896C314.436,267.293,350.419,254.086,368.41,247.482L386.401,240.878" id="my-svg-L_IC_OP_0" class="edge-thickness-normal edge-pattern-solid edge-thickness-normal edge-pattern-solid flowchart-link" style=";" data-edge="true" data-et="edge" data-id="L_IC_OP_0" data-points="W3sieCI6MjEwLjA2MjUsInkiOjI4MC41fSx7IngiOjI3OC40NTMxMjUsInkiOjI4MC41fSx7IngiOjM5MC4xNTY0MzEzMTAzMTcxLCJ5IjoyMzkuNX1d" data-look="classic" marker-end="url(#my-svg_flowchart-v2-pointEnd)"/><path d="M184.039,399.5L199.775,399.5C215.51,399.5,246.982,399.5,286.248,373.329C325.514,347.158,372.576,294.816,396.107,268.645L419.637,242.474" id="my-svg-L_GP_OP_0" class="edge-thickness-normal edge-pattern-solid edge-thickness-normal edge-pattern-solid flowchart-link" style=";" data-edge="true" data-et="edge" data-id="L_GP_OP_0" data-points="W3sieCI6MTg0LjAzOTA2MjUsInkiOjM5OS41fSx7IngiOjI3OC40NTMxMjUsInkiOjM5OS41fSx7IngiOjQyMi4zMTE2MDQyMTkzMjQ0NywieSI6MjM5LjV9XQ==" data-look="classic" marker-end="url(#my-svg_flowchart-v2-pointEnd)"/></g><g class="edgeLabels"><g class="edgeLabel" transform="translate(278.453125, 42.5)"><g class="label" data-id="L_L9_OP_0" transform="translate(-43.390625, -10.5)"><foreignObject width="86.78125" height="21"><div xmlns="http://www.w3.org/1999/xhtml" class="labelBkg" style="display: table-cell; white-space: nowrap; line-height: 1.5; max-width: 200px; text-align: center;"><span class="edgeLabel"><p>GoA 2 · driver</p></span></div></foreignObject></g></g><g class="edgeLabel" transform="translate(278.453125, 161.5)"><g class="label" data-id="L_SB_OP_0" transform="translate(-18.015625, -10.5)"><foreignObject width="36.03125" height="21"><div xmlns="http://www.w3.org/1999/xhtml" class="labelBkg" style="display: table-cell; white-space: nowrap; line-height: 1.5; max-width: 200px; text-align: center;"><span class="edgeLabel"><p>GoA 4</p></span></div></foreignObject></g></g><g class="edgeLabel" transform="translate(278.453125, 280.5)"><g class="label" data-id="L_IC_OP_0" transform="translate(-18.015625, -10.5)"><foreignObject width="36.03125" height="21"><div xmlns="http://www.w3.org/1999/xhtml" class="labelBkg" style="display: table-cell; white-space: nowrap; line-height: 1.5; max-width: 200px; text-align: center;"><span class="edgeLabel"><p>GoA 4</p></span></div></foreignObject></g></g><g class="edgeLabel" transform="translate(278.453125, 399.5)"><g class="label" data-id="L_GP_OP_0" transform="translate(-18.015625, -10.5)"><foreignObject width="36.03125" height="21"><div xmlns="http://www.w3.org/1999/xhtml" class="labelBkg" style="display: table-cell; white-space: nowrap; line-height: 1.5; max-width: 200px; text-align: center;"><span class="edgeLabel"><p>GoA 4</p></span></div></foreignObject></g></g></g><g class="nodes"><g class="node default op" id="my-svg-flowchart-OP-0" data-look="classic" transform="translate(437.8891906738281, 221)"><g class="basic label-container outer-path"><path d="M-73.0546875 -18 C-27.581494522674575 -18, 17.89169845465085 -18, 73.0546875 -18 C73.0546875 -18, 73.0546875 -18, 73.0546875 -18 C73.44356896981745 -17.987529328174816, 73.8324504396349 -17.975058656349635, 74.20795145965283 -17.963017069506055 C74.5757158763373 -17.927539278529924, 74.94348029302178 -17.892061487553796, 75.35647641032111 -17.85222024881843 C75.66936773141231 -17.80163440653284, 75.98225905250351 -17.75104856424725, 76.49554281662469 -17.668064825839178 C76.89618677947516 -17.57662045576475, 77.29683074232562 -17.48517608569032, 77.62047001037112 -17.41130753470253 C77.90162583177799 -17.327861962725994, 78.18278165318485 -17.24441639074946, 78.72663542442517 -17.083003446192034 C78.9511835630696 -17.000367655470644, 79.17573170171403 -16.917731864749257, 79.80949358782874 -16.68450163222839 C80.06109717257657 -16.57312418881569, 80.3127007573244 -16.461746745402987, 80.86459480411605 -16.217439622243546 C81.094003810634 -16.09775709048661, 81.32341281715196 -15.978074558729674, 81.88760343607088 -15.683736674221011 C82.23267603525441 -15.47455163672427, 82.57774863443794 -15.265366599227526, 82.87431572178987 -15.085585888053133 C83.22409395777734 -14.84159573228407, 83.57387219376481 -14.597605576515006, 83.82067704884189 -14.425445193623219 C84.01304450199116 -14.272037268849589, 84.20541195514043 -14.11862934407596, 84.72279861554019 -13.706027250644421 C84.90265583583621 -13.542685681932845, 85.08251305613224 -13.379344113221268, 85.57697341086275 -12.930288301759097 C85.8690360727951 -12.62870962452346, 86.16109873472746 -12.32713094728782, 86.37969144735568 -12.101416024703706 C86.56012507938482 -11.889468413557774, 86.74055871141394 -11.677520802411841, 87.12765418442453 -11.222816433457204 C87.40154570261197 -10.855826751116659, 87.6754372207994 -10.488837068776112, 87.8177880827452 -10.298099882199057 C87.96821818455427 -10.066998849681982, 88.11864828636337 -9.835897817164904, 88.44725723409623 -9.331066229589453 C88.6440998090126 -8.981552305353327, 88.84094238392896 -8.632038381117203, 89.013475014714 -8.325689224335035 C89.17361244727795 -7.993160419223845, 89.3337498798419 -7.660631614112654, 89.51411471428463 -7.286100176203093 C89.67036013611366 -6.900170963485658, 89.82660555794268 -6.514241750768223, 89.94711909689568 -6.216570979583546 C90.08745926600999 -5.7938887503806376, 90.2277994351243 -5.371206521177729, 90.3107088546599 -5.121496559358589 C90.42362758601418 -4.690888497416953, 90.53654631736846 -4.260280435475318, 90.60338991927283 -4.005376811213661 C90.66769596960175 -3.675178833863193, 90.73200201993068 -3.3449808565127253, 90.8239596014601 -2.872798110600833 C90.86384006080543 -2.5634931432059513, 90.90372052015074 -2.25418817581107, 90.97151153308556 -1.728414466338275 C90.99121503674618 -1.4215164924422565, 91.01091854040679 -1.114618518546238, 91.04543939161238 -0.576928396289793 C91.04543939161238 -0.3412283780697484, 91.04543939161238 -0.10552835984970382, 91.04543939161238 0.5769283962897886 C91.01781350387309 1.007223897044546, 90.99018761613378 1.4375193977993033, 90.97151153308556 1.7284144663382628 C90.93578444682261 2.005506692282594, 90.90005736055964 2.282598918226925, 90.8239596014601 2.8727981106008205 C90.7783990483341 3.1067419216766035, 90.73283849520807 3.340685732752387, 90.60338991927283 4.005376811213657 C90.51612462877345 4.338157184903941, 90.42885933827407 4.6709375585942245, 90.3107088546599 5.121496559358577 C90.16778313238851 5.55196606271867, 90.02485741011712 5.982435566078765, 89.94711909689569 6.216570979583534 C89.7779919715497 6.634318249038664, 89.6088648462037 7.052065518493794, 89.51411471428463 7.286100176203088 C89.35274976441076 7.621177947272996, 89.19138481453689 7.956255718342906, 89.013475014714 8.325689224335031 C88.80751693074994 8.691388657930723, 88.60155884678588 9.057088091526417, 88.44725723409623 9.33106622958945 C88.25631773214636 9.62440057901983, 88.06537823019647 9.917734928450214, 87.81778808274521 10.298099882199049 C87.59868545758809 10.591677439249803, 87.37958283243098 10.885254996300558, 87.12765418442454 11.2228164334572 C86.96382478615477 11.415259766821716, 86.799995387885 11.607703100186232, 86.37969144735568 12.101416024703695 C86.20032259633996 12.286629089833976, 86.02095374532423 12.471842154964257, 85.57697341086276 12.930288301759093 C85.36098562133996 13.126442697479943, 85.14499783181716 13.322597093200795, 84.7227986155402 13.706027250644409 C84.51338776397446 13.873026832111286, 84.30397691240873 14.040026413578161, 83.82067704884189 14.425445193623217 C83.46101410986881 14.67633049029314, 83.10135117089575 14.927215786963062, 82.87431572178988 15.085585888053126 C82.56456752830825 15.273357063224124, 82.25481933482662 15.461128238395123, 81.88760343607088 15.68373667422101 C81.53364153695225 15.868398370267782, 81.17967963783362 16.053060066314554, 80.86459480411605 16.217439622243543 C80.48870187149109 16.383836273048946, 80.11280893886611 16.55023292385435, 79.80949358782874 16.68450163222839 C79.48754806462631 16.802980560798673, 79.1656025414239 16.92145948936896, 78.72663542442518 17.08300344619203 C78.4295307668027 17.171182549040214, 78.13242610918022 17.259361651888394, 77.62047001037115 17.411307534702527 C77.24218413392332 17.497648817455705, 76.86389825747547 17.58399010020888, 76.4955428166247 17.668064825839174 C76.14896741433006 17.724096449149787, 75.80239201203541 17.7801280724604, 75.35647641032112 17.85222024881843 C75.04389158699918 17.882374930786046, 74.73130676367724 17.912529612753662, 74.20795145965283 17.963017069506055 C73.95306937473761 17.971190641871406, 73.69818728982239 17.979364214236753, 73.0546875 18 C73.0546875 18, 73.0546875 18, 73.0546875 18 C17.59726343238094 18, -37.86016063523812 18, -73.0546875 18 C-73.46159855039477 17.98695115461815, -73.86850960078954 17.973902309236305, -74.20795145965282 17.963017069506055 C-74.6169068177877 17.92356563794756, -75.02586217592255 17.884114206389068, -75.35647641032111 17.85222024881843 C-75.8015592208238 17.7802627116851, -76.24664203132652 17.708305174551768, -76.4955428166247 17.668064825839174 C-76.85197812855873 17.586710791848017, -77.20841344049275 17.505356757856855, -77.62047001037112 17.41130753470253 C-77.86634750553284 17.33833238477584, -78.11222500069458 17.265357234849148, -78.72663542442517 17.083003446192038 C-78.95480156534003 16.99903619719068, -79.18296770625491 16.915068948189322, -79.80949358782874 16.68450163222839 C-80.02102283129197 16.590863910939277, -80.23255207475522 16.497226189650164, -80.86459480411604 16.217439622243546 C-81.093227444559 16.09816212017065, -81.32186008500196 15.978884618097753, -81.88760343607088 15.683736674221013 C-82.22140921813114 15.481381647475565, -82.55521500019141 15.279026620730116, -82.87431572178987 15.085585888053139 C-83.16660421650231 14.881698087106745, -83.45889271121476 14.677810286160351, -83.82067704884189 14.42544519362322 C-84.06946883417808 14.227040365445061, -84.31826061951428 14.028635537266902, -84.72279861554019 13.706027250644423 C-84.91139697539806 13.534747210260655, -85.09999533525594 13.363467169876888, -85.57697341086275 12.930288301759106 C-85.84906967212054 12.649326572491939, -86.12116593337831 12.36836484322477, -86.37969144735568 12.101416024703703 C-86.53646855305763 11.917256715476162, -86.69324565875958 11.733097406248621, -87.12765418442453 11.222816433457206 C-87.31590658248217 10.970575370206232, -87.50415898053983 10.71833430695526, -87.8177880827452 10.29809988219906 C-88.01426622296994 9.996256697045869, -88.21074436319468 9.694413511892678, -88.44725723409623 9.33106622958946 C-88.67110651218002 8.933599169154352, -88.8949557902638 8.536132108719244, -89.013475014714 8.325689224335036 C-89.16994697597367 8.000771848815688, -89.32641893723336 7.675854473296339, -89.51411471428463 7.286100176203095 C-89.63273181311384 6.993113648789369, -89.75134891194303 6.700127121375644, -89.94711909689568 6.2165709795835475 C-90.0553317814407 5.890651615083795, -90.16354446598574 5.564732250584042, -90.3107088546599 5.121496559358584 C-90.38017121477111 4.856606475077176, -90.44963357488234 4.591716390795769, -90.60338991927281 4.005376811213663 C-90.67601792341381 3.632447359883767, -90.7486459275548 3.2595179085538715, -90.8239596014601 2.8727981106008347 C-90.8565005102051 2.6204172483039745, -90.88904141895007 2.3680363860071147, -90.97151153308556 1.7284144663382852 C-90.98914044989918 1.4538298571605064, -91.00676936671282 1.1792452479827276, -91.04543939161238 0.5769283962897952 C-91.04543939161238 0.33505601935563656, -91.04543939161238 0.09318364242147797, -91.04543939161238 -0.5769283962897864 C-91.02728539525144 -0.8596915432534848, -91.0091313988905 -1.1424546902171833, -90.97151153308556 -1.7284144663382603 C-90.92634831494001 -2.0786914677890196, -90.88118509679445 -2.428968469239779, -90.8239596014601 -2.8727981106008262 C-90.76526953670779 -3.174159188954398, -90.70657947195546 -3.475520267307969, -90.60338991927283 -4.005376811213655 C-90.52948364924946 -4.2872134499928345, -90.45557737922607 -4.569050088772013, -90.3107088546599 -5.121496559358575 C-90.20547980199831 -5.438429700002595, -90.10025074933672 -5.755362840646615, -89.94711909689569 -6.2165709795835244 C-89.85145414078534 -6.452865270732208, -89.75578918467498 -6.689159561880893, -89.51411471428463 -7.286100176203086 C-89.354270359416 -7.618020399209082, -89.19442600454738 -7.949940622215078, -89.013475014714 -8.32568922433503 C-88.80533761870315 -8.695258247149075, -88.5972002226923 -9.06482726996312, -88.44725723409623 -9.331066229589455 C-88.20495804171676 -9.703302855527632, -87.9626588493373 -10.075539481465807, -87.81778808274521 -10.298099882199054 C-87.65772637644488 -10.512567986720073, -87.49766467014454 -10.727036091241093, -87.12765418442454 -11.2228164334572 C-86.90373138542702 -11.485848894727905, -86.6798085864295 -11.748881355998607, -86.37969144735568 -12.101416024703695 C-86.19559076089506 -12.291515098421755, -86.01149007443442 -12.481614172139814, -85.57697341086276 -12.930288301759086 C-85.3253320894156 -13.158822291832893, -85.07369076796842 -13.387356281906698, -84.7227986155402 -13.706027250644407 C-84.45515034609589 -13.91946962310667, -84.1875020766516 -14.13291199556893, -83.8206770488419 -14.425445193623215 C-83.48745911737551 -14.657883597842403, -83.15424118590911 -14.890322002061591, -82.87431572178988 -15.085585888053124 C-82.53536658556796 -15.291058846317082, -82.19641744934601 -15.49653180458104, -81.88760343607089 -15.683736674221008 C-81.5625895333687 -15.853296219079402, -81.2375756306665 -16.022855763937798, -80.86459480411605 -16.217439622243543 C-80.58466778178999 -16.341355011287206, -80.30474075946393 -16.465270400330866, -79.80949358782874 -16.684501632228386 C-79.39841190278544 -16.83578349232176, -78.98733021774216 -16.987065352415133, -78.72663542442518 -17.08300344619203 C-78.3101038129666 -17.20662784205389, -77.89357220150804 -17.33025223791575, -77.62047001037115 -17.411307534702523 C-77.20579463993627 -17.505954481994603, -76.7911192695014 -17.600601429286684, -76.4955428166247 -17.668064825839174 C-76.15568114726004 -17.723011024875444, -75.81581947789537 -17.777957223911713, -75.35647641032112 -17.85222024881843 C-75.02955419107508 -17.883758042127603, -74.70263197182905 -17.915295835436776, -74.20795145965283 -17.963017069506055 C-73.8342447478471 -17.975001116377676, -73.46053803604137 -17.9869851632493, -73.0546875 -18 C-73.0546875 -18, -73.0546875 -18, -73.0546875 -18" stroke="none" stroke-width="0" fill="#F4EFE6" style="fill:#F4EFE6 !important;stroke:#0A1628 !important"/><path d="M-73.0546875 -18 C-43.40291797201385 -18, -13.751148444027706 -18, 73.0546875 -18 M-73.0546875 -18 C-19.617671590149747 -18, 33.819344319700505 -18, 73.0546875 -18 M73.0546875 -18 C73.0546875 -18, 73.0546875 -18, 73.0546875 -18 M73.0546875 -18 C73.0546875 -18, 73.0546875 -18, 73.0546875 -18 M73.0546875 -18 C73.36529002214981 -17.99003958166579, 73.67589254429963 -17.980079163331578, 74.20795145965283 -17.963017069506055 M73.0546875 -18 C73.3354993065629 -17.990994911930553, 73.61631111312579 -17.981989823861102, 74.20795145965283 -17.963017069506055 M74.20795145965283 -17.963017069506055 C74.53851589874746 -17.931127915628498, 74.86908033784209 -17.899238761750944, 75.35647641032111 -17.85222024881843 M74.20795145965283 -17.963017069506055 C74.64460158342733 -17.920893957214133, 75.08125170720182 -17.878770844922215, 75.35647641032111 -17.85222024881843 M75.35647641032111 -17.85222024881843 C75.77718024502808 -17.784204115429972, 76.19788407973503 -17.716187982041518, 76.49554281662469 -17.668064825839178 M75.35647641032111 -17.85222024881843 C75.63626838332824 -17.806985652441792, 75.91606035633538 -17.761751056065158, 76.49554281662469 -17.668064825839178 M76.49554281662469 -17.668064825839178 C76.88300721692201 -17.57962860491282, 77.27047161721934 -17.491192383986462, 77.62047001037112 -17.41130753470253 M76.49554281662469 -17.668064825839178 C76.74776012507185 -17.610497871057866, 76.99997743351899 -17.55293091627656, 77.62047001037112 -17.41130753470253 M77.62047001037112 -17.41130753470253 C78.00845336455393 -17.296156111747255, 78.39643671873675 -17.181004688791983, 78.72663542442517 -17.083003446192034 M77.62047001037112 -17.41130753470253 C78.03316797340021 -17.28882094557131, 78.4458659364293 -17.166334356440093, 78.72663542442517 -17.083003446192034 M78.72663542442517 -17.083003446192034 C79.03062847925865 -16.97113119193232, 79.33462153409214 -16.8592589376726, 79.80949358782874 -16.68450163222839 M78.72663542442517 -17.083003446192034 C78.96201612662533 -16.996381171947018, 79.19739682882548 -16.909758897702, 79.80949358782874 -16.68450163222839 M79.80949358782874 -16.68450163222839 C80.03642593664242 -16.584045413117526, 80.26335828545609 -16.48358919400666, 80.86459480411605 -16.217439622243546 M79.80949358782874 -16.68450163222839 C80.12527329763333 -16.54471532197017, 80.44105300743792 -16.404929011711953, 80.86459480411605 -16.217439622243546 M80.86459480411605 -16.217439622243546 C81.07708505786184 -16.106583592970875, 81.2895753116076 -15.995727563698205, 81.88760343607088 -15.683736674221011 M80.86459480411605 -16.217439622243546 C81.17242225958266 -16.056846235899513, 81.48024971504925 -15.896252849555479, 81.88760343607088 -15.683736674221011 M81.88760343607088 -15.683736674221011 C82.18563406318748 -15.503068756640559, 82.48366469030407 -15.322400839060107, 82.87431572178987 -15.085585888053133 M81.88760343607088 -15.683736674221011 C82.14577450481548 -15.52723185516643, 82.40394557356008 -15.370727036111848, 82.87431572178987 -15.085585888053133 M82.87431572178987 -15.085585888053133 C83.07614212030664 -14.944800529371811, 83.27796851882341 -14.804015170690489, 83.82067704884189 -14.425445193623219 M82.87431572178987 -15.085585888053133 C83.25080540278115 -14.822962984569232, 83.62729508377242 -14.56034008108533, 83.82067704884189 -14.425445193623219 M83.82067704884189 -14.425445193623219 C84.06779599606278 -14.228374409325916, 84.31491494328368 -14.031303625028615, 84.72279861554019 -13.706027250644421 M83.82067704884189 -14.425445193623219 C84.15743280106906 -14.156891442668964, 84.49418855329625 -13.88833769171471, 84.72279861554019 -13.706027250644421 M84.72279861554019 -13.706027250644421 C84.9985086418355 -13.455634699650567, 85.27421866813081 -13.20524214865671, 85.57697341086275 -12.930288301759097 M84.72279861554019 -13.706027250644421 C84.94556134077307 -13.503720037566648, 85.16832406600595 -13.301412824488876, 85.57697341086275 -12.930288301759097 M85.57697341086275 -12.930288301759097 C85.81154321566387 -12.6880757197628, 86.04611302046501 -12.445863137766501, 86.37969144735568 -12.101416024703706 M85.57697341086275 -12.930288301759097 C85.84674009463362 -12.651732052509043, 86.11650677840449 -12.37317580325899, 86.37969144735568 -12.101416024703706 M86.37969144735568 -12.101416024703706 C86.67211153332494 -11.757922752549963, 86.96453161929418 -11.414429480396217, 87.12765418442453 -11.222816433457204 M86.37969144735568 -12.101416024703706 C86.66090351829288 -11.771088324760724, 86.94211558923008 -11.440760624817743, 87.12765418442453 -11.222816433457204 M87.12765418442453 -11.222816433457204 C87.28821610284834 -11.007678090260981, 87.44877802127215 -10.792539747064758, 87.8177880827452 -10.298099882199057 M87.12765418442453 -11.222816433457204 C87.30720486555444 -10.982234878146677, 87.48675554668435 -10.741653322836152, 87.8177880827452 -10.298099882199057 M87.8177880827452 -10.298099882199057 C88.05336250267655 -9.936194312595438, 88.2889369226079 -9.574288742991817, 88.44725723409623 -9.331066229589453 M87.8177880827452 -10.298099882199057 C88.06710534946149 -9.915081609462694, 88.31642261617777 -9.532063336726331, 88.44725723409623 -9.331066229589453 M88.44725723409623 -9.331066229589453 C88.62537370880831 -9.0148023924893, 88.8034901835204 -8.698538555389147, 89.013475014714 -8.325689224335035 M88.44725723409623 -9.331066229589453 C88.66992140715304 -8.935703443134623, 88.89258558020985 -8.540340656679792, 89.013475014714 -8.325689224335035 M89.013475014714 -8.325689224335035 C89.16258632256324 -8.016056403115213, 89.31169763041248 -7.706423581895391, 89.51411471428463 -7.286100176203093 M89.013475014714 -8.325689224335035 C89.18243031213697 -7.974849934171992, 89.35138560955996 -7.6240106440089495, 89.51411471428463 -7.286100176203093 M89.51411471428463 -7.286100176203093 C89.63118085967169 -6.996944533777121, 89.74824700505873 -6.707788891351148, 89.94711909689568 -6.216570979583546 M89.51411471428463 -7.286100176203093 C89.60372485546877 -7.064761394984041, 89.69333499665291 -6.843422613764988, 89.94711909689568 -6.216570979583546 M89.94711909689568 -6.216570979583546 C90.04966370160149 -5.907722968473642, 90.15220830630729 -5.598874957363739, 90.3107088546599 -5.121496559358589 M89.94711909689568 -6.216570979583546 C90.0383756169113 -5.94172088104842, 90.12963213692693 -5.6668707825132945, 90.3107088546599 -5.121496559358589 M90.3107088546599 -5.121496559358589 C90.4178915631074 -4.7127624387685305, 90.52507427155491 -4.304028318178472, 90.60338991927283 -4.005376811213661 M90.3107088546599 -5.121496559358589 C90.408700964397 -4.74781017488198, 90.5066930741341 -4.374123790405371, 90.60338991927283 -4.005376811213661 M90.60338991927283 -4.005376811213661 C90.66965775833357 -3.665105463349476, 90.73592559739431 -3.3248341154852916, 90.8239596014601 -2.872798110600833 M90.60338991927283 -4.005376811213661 C90.64809331579355 -3.7758343181459755, 90.69279671231426 -3.54629182507829, 90.8239596014601 -2.872798110600833 M90.8239596014601 -2.872798110600833 C90.87957429417335 -2.4414615362800727, 90.93518898688662 -2.0101249619593125, 90.97151153308556 -1.728414466338275 M90.8239596014601 -2.872798110600833 C90.86862329765019 -2.5263953027949397, 90.91328699384027 -2.179992494989046, 90.97151153308556 -1.728414466338275 M90.97151153308556 -1.728414466338275 C90.99159156777147 -1.4156517177930341, 91.01167160245737 -1.1028889692477932, 91.04543939161238 -0.576928396289793 M90.97151153308556 -1.728414466338275 C90.99589749487212 -1.3485834275184838, 91.02028345665869 -0.9687523886986924, 91.04543939161238 -0.576928396289793 M91.04543939161238 -0.576928396289793 C91.04543939161238 -0.3391176241805098, 91.04543939161238 -0.10130685207122658, 91.04543939161238 0.5769283962897886 M91.04543939161238 -0.576928396289793 C91.04543939161238 -0.29989780025353646, 91.04543939161238 -0.022867204217279946, 91.04543939161238 0.5769283962897886 M91.04543939161238 0.5769283962897886 C91.0179354615675 1.005324307511304, 90.99043153152265 1.4337202187328195, 90.97151153308556 1.7284144663382628 M91.04543939161238 0.5769283962897886 C91.0231976969249 0.9233607442200112, 91.00095600223743 1.2697930921502338, 90.97151153308556 1.7284144663382628 M90.97151153308556 1.7284144663382628 C90.91509151376945 2.1659969947610724, 90.85867149445333 2.6035795231838823, 90.8239596014601 2.8727981106008205 M90.97151153308556 1.7284144663382628 C90.93694732111642 1.9964876688952267, 90.9023831091473 2.2645608714521908, 90.8239596014601 2.8727981106008205 M90.8239596014601 2.8727981106008205 C90.76038314399358 3.199249782802378, 90.69680668652705 3.525701455003936, 90.60338991927283 4.005376811213657 M90.8239596014601 2.8727981106008205 C90.7683469531062 3.158357306160704, 90.7127343047523 3.4439165017205875, 90.60338991927283 4.005376811213657 M90.60338991927283 4.005376811213657 C90.53334816316047 4.272476383559214, 90.46330640704811 4.53957595590477, 90.3107088546599 5.121496559358577 M90.60338991927283 4.005376811213657 C90.54366079971035 4.233149830869541, 90.48393168014788 4.460922850525425, 90.3107088546599 5.121496559358577 M90.3107088546599 5.121496559358577 C90.18626738161413 5.4962944491162755, 90.06182590856835 5.871092338873973, 89.94711909689569 6.216570979583534 M90.3107088546599 5.121496559358577 C90.2202279030653 5.394010769379652, 90.12974695147068 5.6665249794007275, 89.94711909689569 6.216570979583534 M89.94711909689569 6.216570979583534 C89.83430438972064 6.495225487429891, 89.7214896825456 6.773879995276248, 89.51411471428463 7.286100176203088 M89.94711909689569 6.216570979583534 C89.83932304114907 6.482829321372653, 89.73152698540244 6.74908766316177, 89.51411471428463 7.286100176203088 M89.51411471428463 7.286100176203088 C89.3432728419275 7.640856979583134, 89.17243096957039 7.995613782963179, 89.013475014714 8.325689224335031 M89.51411471428463 7.286100176203088 C89.37909800760589 7.566465256516228, 89.24408130092715 7.846830336829369, 89.013475014714 8.325689224335031 M89.013475014714 8.325689224335031 C88.89410194377362 8.53764819962388, 88.77472887283322 8.74960717491273, 88.44725723409623 9.33106622958945 M89.013475014714 8.325689224335031 C88.86766173608866 8.584595465729866, 88.72184845746332 8.8435017071247, 88.44725723409623 9.33106622958945 M88.44725723409623 9.33106622958945 C88.19576796192496 9.71742128596979, 87.9442786897537 10.103776342350132, 87.81778808274521 10.298099882199049 M88.44725723409623 9.33106622958945 C88.25912195491382 9.620092539809741, 88.07098667573143 9.909118850030035, 87.81778808274521 10.298099882199049 M87.81778808274521 10.298099882199049 C87.56015264389494 10.643307899187093, 87.30251720504467 10.988515916175137, 87.12765418442454 11.2228164334572 M87.81778808274521 10.298099882199049 C87.57904686649063 10.617991362207952, 87.34030565023605 10.937882842216856, 87.12765418442454 11.2228164334572 M87.12765418442454 11.2228164334572 C86.92957348435625 11.455493294868534, 86.73149278428798 11.688170156279867, 86.37969144735568 12.101416024703695 M87.12765418442454 11.2228164334572 C86.87090817887203 11.52440490084076, 86.61416217331951 11.825993368224319, 86.37969144735568 12.101416024703695 M86.37969144735568 12.101416024703695 C86.18287921218868 12.304640816098638, 85.9860669770217 12.507865607493583, 85.57697341086276 12.930288301759093 M86.37969144735568 12.101416024703695 C86.20997147918885 12.276665826104479, 86.04025151102202 12.451915627505262, 85.57697341086276 12.930288301759093 M85.57697341086276 12.930288301759093 C85.38541864615374 13.104253270806488, 85.19386388144471 13.278218239853881, 84.7227986155402 13.706027250644409 M85.57697341086276 12.930288301759093 C85.33653794974703 13.148645425970704, 85.09610248863129 13.367002550182313, 84.7227986155402 13.706027250644409 M84.7227986155402 13.706027250644409 C84.3661080088882 13.990478517513694, 84.00941740223621 14.274929784382978, 83.82067704884189 14.425445193623217 M84.7227986155402 13.706027250644409 C84.37963334620447 13.979692420928316, 84.03646807686874 14.253357591212222, 83.82067704884189 14.425445193623217 M83.82067704884189 14.425445193623217 C83.461132816855 14.676247685438325, 83.10158858486811 14.927050177253433, 82.87431572178988 15.085585888053126 M83.82067704884189 14.425445193623217 C83.44942159653712 14.684416925761518, 83.07816614423236 14.94338865789982, 82.87431572178988 15.085585888053126 M82.87431572178988 15.085585888053126 C82.48908484865038 15.319115107218188, 82.10385397551087 15.552644326383252, 81.88760343607088 15.68373667422101 M82.87431572178988 15.085585888053126 C82.52273290299141 15.298717458938743, 82.17115008419293 15.511849029824358, 81.88760343607088 15.68373667422101 M81.88760343607088 15.68373667422101 C81.613147973388 15.826919913305552, 81.33869251070513 15.970103152390095, 80.86459480411605 16.217439622243543 M81.88760343607088 15.68373667422101 C81.48904729918253 15.891663155548274, 81.09049116229417 16.09958963687554, 80.86459480411605 16.217439622243543 M80.86459480411605 16.217439622243543 C80.61739949249676 16.326865653909017, 80.37020418087748 16.43629168557449, 79.80949358782874 16.68450163222839 M80.86459480411605 16.217439622243543 C80.44372975854469 16.403744093399983, 80.02286471297333 16.590048564556426, 79.80949358782874 16.68450163222839 M79.80949358782874 16.68450163222839 C79.42283879569122 16.826794169932715, 79.0361840035537 16.96908670763704, 78.72663542442518 17.08300344619203 M79.80949358782874 16.68450163222839 C79.50893270013003 16.795110817255903, 79.20837181243132 16.905720002283413, 78.72663542442518 17.08300344619203 M78.72663542442518 17.08300344619203 C78.30277302679355 17.208803580909976, 77.8789106291619 17.33460371562792, 77.62047001037115 17.411307534702527 M78.72663542442518 17.08300344619203 C78.28671035116015 17.213570898723262, 77.84678527789511 17.344138351254497, 77.62047001037115 17.411307534702527 M77.62047001037115 17.411307534702527 C77.21417571906107 17.50404155537602, 76.80788142775101 17.596775576049513, 76.4955428166247 17.668064825839174 M77.62047001037115 17.411307534702527 C77.21748642218412 17.50328590899254, 76.81450283399708 17.59526428328256, 76.4955428166247 17.668064825839174 M76.4955428166247 17.668064825839174 C76.08220403263584 17.73489023494435, 75.668865248647 17.801715644049526, 75.35647641032112 17.85222024881843 M76.4955428166247 17.668064825839174 C76.04701316706087 17.740579621181276, 75.59848351749702 17.813094416523377, 75.35647641032112 17.85222024881843 M75.35647641032112 17.85222024881843 C75.04125401118775 17.882629374552426, 74.72603161205436 17.913038500286422, 74.20795145965283 17.963017069506055 M75.35647641032112 17.85222024881843 C75.0051432992945 17.88611293149928, 74.65381018826788 17.920005614180134, 74.20795145965283 17.963017069506055 M74.20795145965283 17.963017069506055 C73.78641100695033 17.976535051345508, 73.36487055424783 17.99005303318496, 73.0546875 18 M74.20795145965283 17.963017069506055 C73.95065992254969 17.971267908313358, 73.69336838544655 17.979518747120657, 73.0546875 18 M73.0546875 18 C73.0546875 18, 73.0546875 18, 73.0546875 18 M73.0546875 18 C73.0546875 18, 73.0546875 18, 73.0546875 18 M73.0546875 18 C32.788846593290785 18, -7.47699431341843 18, -73.0546875 18 M73.0546875 18 C42.70709175022033 18, 12.359496000440657 18, -73.0546875 18 M-73.0546875 18 C-73.44221883870665 17.98757262425167, -73.8297501774133 17.97514524850334, -74.20795145965282 17.963017069506055 M-73.0546875 18 C-73.41339560909651 17.988496929124253, -73.77210371819301 17.976993858248505, -74.20795145965282 17.963017069506055 M-74.20795145965282 17.963017069506055 C-74.44050662518848 17.940582752375335, -74.67306179072415 17.918148435244618, -75.35647641032111 17.85222024881843 M-74.20795145965282 17.963017069506055 C-74.4936971018907 17.93545153105878, -74.77944274412859 17.907885992611504, -75.35647641032111 17.85222024881843 M-75.35647641032111 17.85222024881843 C-75.59535305694487 17.813600525108363, -75.83422970356862 17.774980801398293, -76.4955428166247 17.668064825839174 M-75.35647641032111 17.85222024881843 C-75.64684357699248 17.80527593714201, -75.93721074366385 17.75833162546559, -76.4955428166247 17.668064825839174 M-76.4955428166247 17.668064825839174 C-76.85850765857522 17.585220469230915, -77.22147250052575 17.502376112622656, -77.62047001037112 17.41130753470253 M-76.4955428166247 17.668064825839174 C-76.83186761508463 17.59130088531511, -77.16819241354457 17.51453694479105, -77.62047001037112 17.41130753470253 M-77.62047001037112 17.41130753470253 C-77.97071713698281 17.307356026008865, -78.3209642635945 17.2034045173152, -78.72663542442517 17.083003446192038 M-77.62047001037112 17.41130753470253 C-77.96963943858714 17.30767588123575, -78.31880886680314 17.204044227768968, -78.72663542442517 17.083003446192038 M-78.72663542442517 17.083003446192038 C-79.10245121291696 16.94469976202399, -79.47826700140877 16.806396077855943, -79.80949358782874 16.68450163222839 M-78.72663542442517 17.083003446192038 C-78.95125501511461 17.00034136045759, -79.17587460580404 16.91767927472314, -79.80949358782874 16.68450163222839 M-79.80949358782874 16.68450163222839 C-80.04700583726971 16.579362004951424, -80.28451808671068 16.474222377674458, -80.86459480411604 16.217439622243546 M-79.80949358782874 16.68450163222839 C-80.14683562193748 16.535170320624346, -80.48417765604621 16.385839009020305, -80.86459480411604 16.217439622243546 M-80.86459480411604 16.217439622243546 C-81.16844323844957 16.058922088675953, -81.4722916727831 15.900404555108361, -81.88760343607088 15.683736674221013 M-80.86459480411604 16.217439622243546 C-81.13730112821214 16.07516890763935, -81.41000745230825 15.932898193035147, -81.88760343607088 15.683736674221013 M-81.88760343607088 15.683736674221013 C-82.14676563039482 15.526631029015729, -82.40592782471877 15.369525383810444, -82.87431572178987 15.085585888053139 M-81.88760343607088 15.683736674221013 C-82.23348670863892 15.47406020175454, -82.57936998120695 15.264383729288065, -82.87431572178987 15.085585888053139 M-82.87431572178987 15.085585888053139 C-83.11444692611944 14.91808075502512, -83.35457813044903 14.7505756219971, -83.82067704884189 14.42544519362322 M-82.87431572178987 15.085585888053139 C-83.09777199268781 14.929712466740801, -83.32122826358574 14.773839045428462, -83.82067704884189 14.42544519362322 M-83.82067704884189 14.42544519362322 C-84.08320648478227 14.216084954662458, -84.34573592072265 14.006724715701694, -84.72279861554019 13.706027250644423 M-83.82067704884189 14.42544519362322 C-84.10179952606315 14.201257499022566, -84.3829220032844 13.97706980442191, -84.72279861554019 13.706027250644423 M-84.72279861554019 13.706027250644423 C-84.89855470580393 13.546410219718206, -85.07431079606769 13.38679318879199, -85.57697341086275 12.930288301759106 M-84.72279861554019 13.706027250644423 C-84.97346889002307 13.478375139731085, -85.22413916450596 13.250723028817747, -85.57697341086275 12.930288301759106 M-85.57697341086275 12.930288301759106 C-85.85602594471423 12.642143649918346, -86.1350784785657 12.353998998077586, -86.37969144735568 12.101416024703703 M-85.57697341086275 12.930288301759106 C-85.84700991955334 12.651453436126396, -86.11704642824392 12.372618570493685, -86.37969144735568 12.101416024703703 M-86.37969144735568 12.101416024703703 C-86.57463693487365 11.872421962352611, -86.76958242239162 11.643427900001518, -87.12765418442453 11.222816433457206 M-86.37969144735568 12.101416024703703 C-86.57115567810774 11.87651124463897, -86.7626199088598 11.651606464574238, -87.12765418442453 11.222816433457206 M-87.12765418442453 11.222816433457206 C-87.28242187769756 11.015441824098255, -87.4371895709706 10.808067214739305, -87.8177880827452 10.29809988219906 M-87.12765418442453 11.222816433457206 C-87.37638995660816 10.889533159026145, -87.6251257287918 10.556249884595085, -87.8177880827452 10.29809988219906 M-87.8177880827452 10.29809988219906 C-88.0222148131471 9.98404552803842, -88.22664154354901 9.66999117387778, -88.44725723409623 9.33106622958946 M-87.8177880827452 10.29809988219906 C-88.03225843099987 9.968615833927537, -88.24672877925455 9.639131785656014, -88.44725723409623 9.33106622958946 M-88.44725723409623 9.33106622958946 C-88.5954602221744 9.067916817076798, -88.74366321025258 8.804767404564133, -89.013475014714 8.325689224335036 M-88.44725723409623 9.33106622958946 C-88.62498924544285 9.015485046125828, -88.80272125678947 8.699903862662195, -89.013475014714 8.325689224335036 M-89.013475014714 8.325689224335036 C-89.18110246493342 7.977607237301579, -89.34872991515282 7.629525250268122, -89.51411471428463 7.286100176203095 M-89.013475014714 8.325689224335036 C-89.20866732750845 7.920368210370919, -89.40385964030291 7.515047196406801, -89.51411471428463 7.286100176203095 M-89.51411471428463 7.286100176203095 C-89.6783949109293 6.880324914349231, -89.84267510757395 6.474549652495366, -89.94711909689568 6.2165709795835475 M-89.51411471428463 7.286100176203095 C-89.6289338565424 7.002494674949305, -89.74375299880016 6.718889173695516, -89.94711909689568 6.2165709795835475 M-89.94711909689568 6.2165709795835475 C-90.08891277015475 5.789511027481035, -90.23070644341382 5.362451075378523, -90.3107088546599 5.121496559358584 M-89.94711909689568 6.2165709795835475 C-90.05239310289765 5.89950244664063, -90.15766710889963 5.582433913697713, -90.3107088546599 5.121496559358584 M-90.3107088546599 5.121496559358584 C-90.40965576188762 4.744169118238391, -90.50860266911535 4.366841677118198, -90.60338991927281 4.005376811213663 M-90.3107088546599 5.121496559358584 C-90.38958550381302 4.8207057107817155, -90.46846215296614 4.519914862204847, -90.60338991927281 4.005376811213663 M-90.60338991927281 4.005376811213663 C-90.67326998640776 3.6465574356331873, -90.74315005354269 3.2877380600527113, -90.8239596014601 2.8727981106008347 M-90.60338991927281 4.005376811213663 C-90.64770404600088 3.7778331362590447, -90.69201817272895 3.5502894613044256, -90.8239596014601 2.8727981106008347 M-90.8239596014601 2.8727981106008347 C-90.87353219084231 2.488322896567402, -90.92310478022452 2.103847682533969, -90.97151153308556 1.7284144663382852 M-90.8239596014601 2.8727981106008347 C-90.86367587334382 2.564766548735664, -90.90339214522754 2.256734986870494, -90.97151153308556 1.7284144663382852 M-90.97151153308556 1.7284144663382852 C-90.98855728902022 1.4629130585694525, -91.00560304495488 1.1974116508006198, -91.04543939161238 0.5769283962897952 M-90.97151153308556 1.7284144663382852 C-90.9910099964784 1.4247101601186118, -91.01050845987122 1.1210058538989385, -91.04543939161238 0.5769283962897952 M-91.04543939161238 0.5769283962897952 C-91.04543939161238 0.30398524801904225, -91.04543939161238 0.03104209974828931, -91.04543939161238 -0.5769283962897864 M-91.04543939161238 0.5769283962897952 C-91.04543939161238 0.3220950174027309, -91.04543939161238 0.06726163851566658, -91.04543939161238 -0.5769283962897864 M-91.04543939161238 -0.5769283962897864 C-91.02039232146332 -0.9670567314925818, -90.99534525131425 -1.357185066695377, -90.97151153308556 -1.7284144663382603 M-91.04543939161238 -0.5769283962897864 C-91.0289104307857 -0.8343803031021917, -91.01238146995904 -1.091832209914597, -90.97151153308556 -1.7284144663382603 M-90.97151153308556 -1.7284144663382603 C-90.91992479353465 -2.128511031341242, -90.86833805398373 -2.5286075963442234, -90.8239596014601 -2.8727981106008262 M-90.97151153308556 -1.7284144663382603 C-90.93209528716145 -2.0341190861076064, -90.89267904123733 -2.3398237058769524, -90.8239596014601 -2.8727981106008262 M-90.8239596014601 -2.8727981106008262 C-90.76753365081638 -3.1625334415274926, -90.71110770017265 -3.452268772454159, -90.60338991927283 -4.005376811213655 M-90.8239596014601 -2.8727981106008262 C-90.76000548059501 -3.2011890045348226, -90.69605135972994 -3.529579898468819, -90.60338991927283 -4.005376811213655 M-90.60338991927283 -4.005376811213655 C-90.54154506026796 -4.241218062330668, -90.47970020126309 -4.47705931344768, -90.3107088546599 -5.121496559358575 M-90.60338991927283 -4.005376811213655 C-90.5026983466915 -4.389357417469873, -90.40200677411016 -4.77333802372609, -90.3107088546599 -5.121496559358575 M-90.3107088546599 -5.121496559358575 C-90.22514267255923 -5.379208266726062, -90.13957649045857 -5.636919974093549, -89.94711909689569 -6.2165709795835244 M-90.3107088546599 -5.121496559358575 C-90.18385321142327 -5.503565545085356, -90.05699756818663 -5.885634530812136, -89.94711909689569 -6.2165709795835244 M-89.94711909689569 -6.2165709795835244 C-89.80937179825547 -6.556809470387711, -89.67162449961526 -6.897047961191898, -89.51411471428463 -7.286100176203086 M-89.94711909689569 -6.2165709795835244 C-89.77424926659259 -6.643562802643002, -89.60137943628948 -7.07055462570248, -89.51411471428463 -7.286100176203086 M-89.51411471428463 -7.286100176203086 C-89.32458739082557 -7.679657718600904, -89.13506006736651 -8.073215260998722, -89.013475014714 -8.32568922433503 M-89.51411471428463 -7.286100176203086 C-89.31976904935941 -7.68966310775139, -89.12542338443419 -8.093226039299696, -89.013475014714 -8.32568922433503 M-89.013475014714 -8.32568922433503 C-88.8060270461897 -8.694034098834605, -88.59857907766539 -9.06237897333418, -88.44725723409623 -9.331066229589455 M-89.013475014714 -8.32568922433503 C-88.82314358875995 -8.663641944263237, -88.63281216280589 -9.001594664191446, -88.44725723409623 -9.331066229589455 M-88.44725723409623 -9.331066229589455 C-88.3065282607987 -9.547263723595036, -88.16579928750117 -9.763461217600616, -87.81778808274521 -10.298099882199054 M-88.44725723409623 -9.331066229589455 C-88.24733242600158 -9.638204422150752, -88.04740761790693 -9.945342614712049, -87.81778808274521 -10.298099882199054 M-87.81778808274521 -10.298099882199054 C-87.63346068934891 -10.54508179677911, -87.44913329595259 -10.792063711359164, -87.12765418442454 -11.2228164334572 M-87.81778808274521 -10.298099882199054 C-87.57130194147202 -10.628368856155712, -87.32481580019882 -10.958637830112371, -87.12765418442454 -11.2228164334572 M-87.12765418442454 -11.2228164334572 C-86.96467381209972 -11.41426245263584, -86.8016934397749 -11.60570847181448, -86.37969144735568 -12.101416024703695 M-87.12765418442454 -11.2228164334572 C-86.95292754492174 -11.428060286444628, -86.77820090541894 -11.633304139432056, -86.37969144735568 -12.101416024703695 M-86.37969144735568 -12.101416024703695 C-86.09869500918829 -12.391567917348143, -85.81769857102091 -12.68171980999259, -85.57697341086276 -12.930288301759086 M-86.37969144735568 -12.101416024703695 C-86.20076521893573 -12.286172045663848, -86.02183899051577 -12.470928066624001, -85.57697341086276 -12.930288301759086 M-85.57697341086276 -12.930288301759086 C-85.34613548158926 -13.139929201488368, -85.11529755231574 -13.349570101217651, -84.7227986155402 -13.706027250644407 M-85.57697341086276 -12.930288301759086 C-85.34444764357242 -13.141462051317504, -85.11192187628208 -13.352635800875921, -84.7227986155402 -13.706027250644407 M-84.7227986155402 -13.706027250644407 C-84.4987643506784 -13.88468861506953, -84.27473008581659 -14.063349979494655, -83.8206770488419 -14.425445193623215 M-84.7227986155402 -13.706027250644407 C-84.41716402323127 -13.949762704732711, -84.11152943092233 -14.193498158821013, -83.8206770488419 -14.425445193623215 M-83.8206770488419 -14.425445193623215 C-83.52411736738783 -14.632312389543877, -83.22755768593375 -14.839179585464537, -82.87431572178988 -15.085585888053124 M-83.8206770488419 -14.425445193623215 C-83.4653186122733 -14.67332785575469, -83.10996017570467 -14.921210517886166, -82.87431572178988 -15.085585888053124 M-82.87431572178988 -15.085585888053124 C-82.66647466426181 -15.211580358536274, -82.45863360673373 -15.337574829019424, -81.88760343607089 -15.683736674221008 M-82.87431572178988 -15.085585888053124 C-82.50151325767015 -15.311580932632964, -82.12871079355043 -15.537575977212803, -81.88760343607089 -15.683736674221008 M-81.88760343607089 -15.683736674221008 C-81.57230932186586 -15.848225411646256, -81.25701520766081 -16.012714149071503, -80.86459480411605 -16.217439622243543 M-81.88760343607089 -15.683736674221008 C-81.60110394936638 -15.833203272923074, -81.31460446266186 -15.98266987162514, -80.86459480411605 -16.217439622243543 M-80.86459480411605 -16.217439622243543 C-80.63340454628296 -16.31978069137092, -80.40221428844985 -16.4221217604983, -79.80949358782874 -16.684501632228386 M-80.86459480411605 -16.217439622243543 C-80.59683183683255 -16.335970344953733, -80.32906886954905 -16.454501067663927, -79.80949358782874 -16.684501632228386 M-79.80949358782874 -16.684501632228386 C-79.51640670335094 -16.79236031498168, -79.22331981887314 -16.900218997734974, -78.72663542442518 -17.08300344619203 M-79.80949358782874 -16.684501632228386 C-79.46936608734595 -16.8096716965102, -79.12923858686317 -16.934841760792015, -78.72663542442518 -17.08300344619203 M-78.72663542442518 -17.08300344619203 C-78.38276783489059 -17.18506154176809, -78.03890024535599 -17.287119637344148, -77.62047001037115 -17.411307534702523 M-78.72663542442518 -17.08300344619203 C-78.39186486696002 -17.182361590401175, -78.05709430949486 -17.28171973461032, -77.62047001037115 -17.411307534702523 M-77.62047001037115 -17.411307534702523 C-77.19720787340543 -17.507914355421377, -76.77394573643971 -17.604521176140235, -76.4955428166247 -17.668064825839174 M-77.62047001037115 -17.411307534702523 C-77.199701258582 -17.507345256525685, -76.77893250679286 -17.603382978348847, -76.4955428166247 -17.668064825839174 M-76.4955428166247 -17.668064825839174 C-76.0705886613711 -17.736768118091884, -75.64563450611752 -17.805471410344595, -75.35647641032112 -17.85222024881843 M-76.4955428166247 -17.668064825839174 C-76.19862614901054 -17.716068010035887, -75.90170948139638 -17.7640711942326, -75.35647641032112 -17.85222024881843 M-75.35647641032112 -17.85222024881843 C-75.09977297815541 -17.87698412018841, -74.84306954598972 -17.901747991558388, -74.20795145965283 -17.963017069506055 M-75.35647641032112 -17.85222024881843 C-74.92438156575203 -17.89390391880393, -74.49228672118295 -17.935587588789428, -74.20795145965283 -17.963017069506055 M-74.20795145965283 -17.963017069506055 C-73.88481008898653 -17.9733795843068, -73.56166871832022 -17.98374209910755, -73.0546875 -18 M-74.20795145965283 -17.963017069506055 C-73.97419735583387 -17.970513108640766, -73.7404432520149 -17.97800914777548, -73.0546875 -18 M-73.0546875 -18 C-73.0546875 -18, -73.0546875 -18, -73.0546875 -18 M-73.0546875 -18 C-73.0546875 -18, -73.0546875 -18, -73.0546875 -18" stroke="#0A1628" stroke-width="1.3" fill="none" stroke-dasharray="0 0" style="fill:#F4EFE6 !important;stroke:#0A1628 !important"/></g><g class="label" style="color:#0A1628 !important;font-weight:bold !important" transform="translate(-79.0546875, -10.5)"><rect/><foreignObject width="158.109375" height="21"><div style="color: rgb(10, 22, 40) !important; font-weight: bold !important; display: table-cell; white-space: nowrap; line-height: 1.5; max-width: 200px; text-align: center;" xmlns="http://www.w3.org/1999/xhtml"><span style="color:#0A1628 !important;font-weight:bold !important" class="nodeLabel"><p>Seoul metro automation</p></span></div></foreignObject></g></g><g class="node default g2" id="my-svg-flowchart-L9-1" data-look="classic" transform="translate(109.03125, 42.5)"><rect class="basic label-container" style="fill:#0A1628 !important;stroke:#D4A84B !important" x="-79.0390625" y="-34.5" width="158.078125" height="69"/><g class="label" style="color:#F4EFE6 !important;font-size:13px !important" transform="translate(-49.0390625, -19.5)"><rect/><foreignObject width="98.078125" height="39"><div style="color: rgb(244, 239, 230) !important; font-size: 13px !important; display: table-cell; white-space: nowrap; line-height: 1.5; max-width: 200px; text-align: center;" xmlns="http://www.w3.org/1999/xhtml"><span style="color:#F4EFE6 !important;font-size:13px !important" class="nodeLabel"><p>Line 9<br />40.6 km · Alstom</p></span></div></foreignObject></g></g><g class="node default g4" id="my-svg-flowchart-SB-3" data-look="classic" transform="translate(109.03125, 161.5)"><rect class="basic label-container" style="fill:#D4A84B !important;stroke:#0A1628 !important" x="-81.59375" y="-34.5" width="163.1875" height="69"/><g class="label" style="color:#0A1628 !important;font-size:13px !important" transform="translate(-51.59375, -19.5)"><rect/><foreignObject width="103.1875" height="39"><div style="color: rgb(10, 22, 40) !important; font-size: 13px !important; display: table-cell; white-space: nowrap; line-height: 1.5; max-width: 200px; text-align: center;" xmlns="http://www.w3.org/1999/xhtml"><span style="color:#0A1628 !important;font-size:13px !important" class="nodeLabel"><p>Shinbundang / DX<br />33.4 km · Thales</p></span></div></foreignObject></g></g><g class="node default g4" id="my-svg-flowchart-IC-5" data-look="classic" transform="translate(109.03125, 280.5)"><rect class="basic label-container" style="fill:#D4A84B !important;stroke:#0A1628 !important" x="-101.03125" y="-34.5" width="202.0625" height="69"/><g class="label" style="color:#0A1628 !important;font-size:13px !important" transform="translate(-71.03125, -19.5)"><rect/><foreignObject width="142.0625" height="39"><div style="color: rgb(10, 22, 40) !important; font-size: 13px !important; display: table-cell; white-space: nowrap; line-height: 1.5; max-width: 200px; text-align: center;" xmlns="http://www.w3.org/1999/xhtml"><span style="color:#0A1628 !important;font-size:13px !important" class="nodeLabel"><p>Incheon Line 2<br />29.2 km · Thales SelTrac</p></span></div></foreignObject></g></g><g class="node default g4" id="my-svg-flowchart-GP-7" data-look="classic" transform="translate(109.03125, 399.5)"><rect class="basic label-container" style="fill:#D4A84B !important;stroke:#0A1628 !important" x="-75.0078125" y="-34.5" width="150.015625" height="69"/><g class="label" style="color:#0A1628 !important;font-size:13px !important" transform="translate(-45.0078125, -19.5)"><rect/><foreignObject width="90.015625" height="39"><div style="color: rgb(10, 22, 40) !important; font-size: 13px !important; display: table-cell; white-space: nowrap; line-height: 1.5; max-width: 200px; text-align: center;" xmlns="http://www.w3.org/1999/xhtml"><span style="color:#0A1628 !important;font-size:13px !important" class="nodeLabel"><p>Gimpo Goldline<br />23.7 km (light)</p></span></div></foreignObject></g></g></g></g></g><defs><filter id="my-svg-drop-shadow" height="130%" width="130%"><feDropShadow dx="4" dy="4" stdDeviation="0" flood-opacity="0.06" flood-color="#000000"/></filter></defs><defs><filter id="my-svg-drop-shadow-small" height="150%" width="150%"><feDropShadow dx="2" dy="2" stdDeviation="0" flood-opacity="0.06" flood-color="#000000"/></filter></defs><linearGradient id="my-svg-gradient" gradientUnits="objectBoundingBox" x1="0%" y1="0%" x2="100%" y2="0%"><stop offset="0%" stop-color="#D4A84B" stop-opacity="1"/><stop offset="100%" stop-color="hsl(216, 20%, 0%)" stop-opacity="1"/></linearGradient></svg>